<?xml version="1.0" encoding="UTF-8" standalone="no"?><!DOCTYPE svg PUBLIC "-//W3C//DTD SVG 1.1//EN" "http://www.w3.org/Graphics/SVG/1.1/DTD/svg11.dtd"><!-- Generated by graphviz version 2.40.1 (20161225.0304)
 --><!-- Title: G Pages: 1 --><svg xmlns="http://www.w3.org/2000/svg" xmlns:xlink="http://www.w3.org/1999/xlink" width="6134pt" height="310pt" viewBox="0.00 0.00 6134.17 310.40">
<g id="graph0" class="graph" transform="scale(1 1) rotate(0) translate(4 306.4)">
<title>G</title>
<polygon fill="#ffffff" stroke="transparent" points="-4,4 -4,-306.4 6130.1665,-306.4 6130.1665,4 -4,4"/>
<!-- 0 -->
<g id="node1" class="node">
<title>0</title>
<ellipse fill="none" stroke="#000000" cx="253.2607" cy="-284.4" rx="27" ry="18"/>
<text text-anchor="middle" x="253.2607" y="-280.2" font-family="Times,serif" font-size="14.00" fill="#000000">0</text>
</g>
<!-- 0&#45;&gt;0 -->
<g id="edge1" class="edge">
<title>0-&gt;0</title>
<path fill="none" stroke="#00ff00" d="M277.7931,-292.5211C288.7685,-293.2945 298.2607,-290.5875 298.2607,-284.4 298.2607,-280.2428 293.9757,-277.6567 287.835,-276.6417"/>
<polygon fill="#00ff00" stroke="#00ff00" points="287.913,-273.1424 277.7931,-276.2789 287.6602,-280.1378 287.913,-273.1424"/>
<text text-anchor="middle" x="337.3228" y="-280.2" font-family="Times,serif" font-size="14.00" fill="#000000">-r1, -b, -r2 (0)</text>
</g>
<!-- 2 -->
<g id="node6" class="node">
<title>2</title>
<ellipse fill="none" stroke="#000000" cx="34.2607" cy="-195.6" rx="27" ry="18"/>
<text text-anchor="middle" x="34.2607" y="-191.4" font-family="Times,serif" font-size="14.00" fill="#000000">0, h</text>
</g>
<!-- 0&#45;&gt;2 -->
<g id="edge2" class="edge">
<title>0-&gt;2</title>
<path fill="none" stroke="#00ff00" d="M226.1547,-282.4627C164.6147,-277.7894 18.5466,-265.0421 4.1365,-248.4 -3.8221,-239.2087 1.4827,-227.5972 9.7252,-217.6051"/>
<polygon fill="#00ff00" stroke="#00ff00" points="12.5312,-219.7267 16.7681,-210.016 7.4002,-214.9651 12.5312,-219.7267"/>
<text text-anchor="middle" x="43.3228" y="-235.8" font-family="Times,serif" font-size="14.00" fill="#000000">-r1, -b, -r2 (0)</text>
</g>
<!-- 8 -->
<g id="node11" class="node">
<title>8</title>
<ellipse fill="none" stroke="#000000" cx="220.2607" cy="-195.6" rx="28.9754" ry="18"/>
<text text-anchor="middle" x="220.2607" y="-191.4" font-family="Times,serif" font-size="14.00" fill="#000000">0, r2</text>
</g>
<!-- 0&#45;&gt;8 -->
<g id="edge7" class="edge">
<title>0-&gt;8</title>
<path fill="none" stroke="#00ff00" d="M230.5049,-274.687C219.7223,-268.7838 207.8918,-260.1014 201.7971,-248.4 197.3826,-239.9246 199.0902,-230.1631 202.8655,-221.3568"/>
<polygon fill="#00ff00" stroke="#00ff00" points="206.0759,-222.7691 207.5818,-212.2818 199.8647,-219.541 206.0759,-222.7691"/>
<text text-anchor="middle" x="238.9925" y="-235.8" font-family="Times,serif" font-size="14.00" fill="#000000">-r1, -b, r2 (0)</text>
</g>
<!-- 4 -->
<g id="node32" class="node">
<title>4</title>
<ellipse fill="none" stroke="#000000" cx="450.2607" cy="-195.6" rx="28.9754" ry="18"/>
<text text-anchor="middle" x="450.2607" y="-191.4" font-family="Times,serif" font-size="14.00" fill="#000000">0, r1</text>
</g>
<!-- 0&#45;&gt;4 -->
<g id="edge9" class="edge">
<title>0-&gt;4</title>
<path fill="none" stroke="#00ff00" d="M278.5902,-278.0317C301.5159,-271.8395 335.9296,-261.4659 364.2607,-248.4 384.6647,-238.9899 406.2089,-225.7567 422.6299,-214.8926"/>
<polygon fill="#00ff00" stroke="#00ff00" points="424.84,-217.6243 431.1859,-209.1401 420.9343,-211.8152 424.84,-217.6243"/>
<text text-anchor="middle" x="430.9925" y="-235.8" font-family="Times,serif" font-size="14.00" fill="#000000">r1, -b, -r2 (0)</text>
</g>
<!-- 16 -->
<g id="node2" class="node">
<title>16</title>
<ellipse fill="none" stroke="#000000" cx="421.2607" cy="-284.4" rx="27" ry="18"/>
<text text-anchor="middle" x="421.2607" y="-280.2" font-family="Times,serif" font-size="14.00" fill="#000000">0, t</text>
</g>
<!-- 18 -->
<g id="node3" class="node">
<title>18</title>
<ellipse fill="none" stroke="#000000" cx="499.2607" cy="-284.4" rx="33.0682" ry="18"/>
<text text-anchor="middle" x="499.2607" y="-280.2" font-family="Times,serif" font-size="14.00" fill="#000000">0, h, t</text>
</g>
<!-- 24 -->
<g id="node4" class="node">
<title>24</title>
<ellipse fill="none" stroke="#000000" cx="586.2607" cy="-284.4" rx="36.4994" ry="18"/>
<text text-anchor="middle" x="586.2607" y="-280.2" font-family="Times,serif" font-size="14.00" fill="#000000">0, r2, t</text>
</g>
<!-- 20 -->
<g id="node5" class="node">
<title>20</title>
<ellipse fill="none" stroke="#000000" cx="404.2607" cy="-106.8" rx="36.4994" ry="18"/>
<text text-anchor="middle" x="404.2607" y="-102.6" font-family="Times,serif" font-size="14.00" fill="#000000">0, r1, t</text>
</g>
<!-- 20&#45;&gt;20 -->
<g id="edge13" class="edge">
<title>20-&gt;20</title>
<path fill="none" stroke="#00ff00" d="M436.5627,-115.0319C448.6005,-115.3018 458.5095,-112.5578 458.5095,-106.8 458.5095,-102.8415 453.826,-100.3075 446.9871,-99.1981"/>
<polygon fill="#00ff00" stroke="#00ff00" points="446.7556,-95.6778 436.5627,-98.5681 446.3333,-102.665 446.7556,-95.6778"/>
<text text-anchor="middle" x="495.2413" y="-102.6" font-family="Times,serif" font-size="14.00" fill="#000000">r1, -b, -r2 (0)</text>
</g>
<!-- 20&#45;&gt;4 -->
<g id="edge12" class="edge">
<title>20-&gt;4</title>
<path fill="none" stroke="#00ff00" d="M416.6795,-123.9588C420.6324,-129.7902 424.8581,-136.4422 428.2607,-142.8 432.5716,-150.8551 436.6254,-159.9397 440.05,-168.2736"/>
<polygon fill="#00ff00" stroke="#00ff00" points="436.8129,-169.6052 443.759,-177.6053 443.3179,-167.0196 436.8129,-169.6052"/>
<text text-anchor="middle" x="472.9925" y="-147" font-family="Times,serif" font-size="14.00" fill="#000000">r1, -b, -r2 (0)</text>
</g>
<!-- 2&#45;&gt;0 -->
<g id="edge5" class="edge">
<title>2-&gt;0</title>
<path fill="none" stroke="#00ff00" d="M52.102,-209.2775C68.295,-221.1121 93.2281,-237.9262 117.1365,-248.4 149.4991,-262.5775 188.7097,-272.2215 216.7197,-277.9318"/>
<polygon fill="#00ff00" stroke="#00ff00" points="216.3812,-281.4323 226.8688,-279.929 217.7328,-274.564 216.3812,-281.4323"/>
<text text-anchor="middle" x="156.3228" y="-235.8" font-family="Times,serif" font-size="14.00" fill="#000000">-r1, -b, -r2 (0)</text>
</g>
<!-- 2&#45;&gt;2 -->
<g id="edge6" class="edge">
<title>2-&gt;2</title>
<path fill="none" stroke="#00ff00" d="M58.7931,-203.7211C69.7685,-204.4945 79.2607,-201.7875 79.2607,-195.6 79.2607,-191.4428 74.9757,-188.8567 68.835,-187.8417"/>
<polygon fill="#00ff00" stroke="#00ff00" points="68.913,-184.3424 58.7931,-187.4789 68.6602,-191.3378 68.913,-184.3424"/>
<text text-anchor="middle" x="118.3228" y="-191.4" font-family="Times,serif" font-size="14.00" fill="#000000">-r1, -b, -r2 (0)</text>
</g>
<!-- 10 -->
<g id="node7" class="node">
<title>10</title>
<ellipse fill="none" stroke="#000000" cx="679.2607" cy="-284.4" rx="38.2876" ry="18"/>
<text text-anchor="middle" x="679.2607" y="-280.2" font-family="Times,serif" font-size="14.00" fill="#000000">0, h, r2</text>
</g>
<!-- 26 -->
<g id="node8" class="node">
<title>26</title>
<ellipse fill="none" stroke="#000000" cx="781.2607" cy="-284.4" rx="45.8118" ry="18"/>
<text text-anchor="middle" x="781.2607" y="-280.2" font-family="Times,serif" font-size="14.00" fill="#000000">0, h, r2, t</text>
</g>
<!-- 6 -->
<g id="node9" class="node">
<title>6</title>
<ellipse fill="none" stroke="#000000" cx="883.2607" cy="-284.4" rx="38.2876" ry="18"/>
<text text-anchor="middle" x="883.2607" y="-280.2" font-family="Times,serif" font-size="14.00" fill="#000000">0, h, r1</text>
</g>
<!-- 22 -->
<g id="node10" class="node">
<title>22</title>
<ellipse fill="none" stroke="#000000" cx="985.2607" cy="-284.4" rx="45.8118" ry="18"/>
<text text-anchor="middle" x="985.2607" y="-280.2" font-family="Times,serif" font-size="14.00" fill="#000000">0, h, r1, t</text>
</g>
<!-- 8&#45;&gt;0 -->
<g id="edge3" class="edge">
<title>8-&gt;0</title>
<path fill="none" stroke="#00ff00" d="M245.6388,-204.2325C258.1344,-209.9163 272.0367,-218.7296 279.2607,-231.6 284.6213,-241.1506 280.9348,-251.9599 274.8376,-261.2996"/>
<polygon fill="#00ff00" stroke="#00ff00" points="271.9687,-259.291 268.7507,-269.3854 277.5612,-263.5011 271.9687,-259.291"/>
<text text-anchor="middle" x="321.3228" y="-235.8" font-family="Times,serif" font-size="14.00" fill="#000000">-r1, -b, -r2 (0)</text>
</g>
<!-- 8&#45;&gt;8 -->
<g id="edge8" class="edge">
<title>8-&gt;8</title>
<path fill="none" stroke="#00ff00" d="M246.214,-203.7513C257.4108,-204.4187 266.9974,-201.7016 266.9974,-195.6 266.9974,-191.5005 262.6699,-188.9288 256.434,-187.8849"/>
<polygon fill="#00ff00" stroke="#00ff00" points="256.3542,-184.3784 246.214,-187.4487 256.0556,-191.3721 256.3542,-184.3784"/>
<text text-anchor="middle" x="303.7292" y="-191.4" font-family="Times,serif" font-size="14.00" fill="#000000">-r1, -b, r2 (0)</text>
</g>
<!-- 12 -->
<g id="node12" class="node">
<title>12</title>
<ellipse fill="none" stroke="#000000" cx="1091.2607" cy="-284.4" rx="41.7172" ry="18"/>
<text text-anchor="middle" x="1091.2607" y="-280.2" font-family="Times,serif" font-size="14.00" fill="#000000">0, r1, r2</text>
</g>
<!-- 28 -->
<g id="node13" class="node">
<title>28</title>
<ellipse fill="none" stroke="#000000" cx="1200.2607" cy="-284.4" rx="49.2415" ry="18"/>
<text text-anchor="middle" x="1200.2607" y="-280.2" font-family="Times,serif" font-size="14.00" fill="#000000">0, r1, r2, t</text>
</g>
<!-- 14 -->
<g id="node14" class="node">
<title>14</title>
<ellipse fill="none" stroke="#000000" cx="1318.2607" cy="-284.4" rx="51.0319" ry="18"/>
<text text-anchor="middle" x="1318.2607" y="-280.2" font-family="Times,serif" font-size="14.00" fill="#000000">0, h, r1, r2</text>
</g>
<!-- 30 -->
<g id="node15" class="node">
<title>30</title>
<ellipse fill="none" stroke="#000000" cx="1446.2607" cy="-284.4" rx="58.5559" ry="18"/>
<text text-anchor="middle" x="1446.2607" y="-280.2" font-family="Times,serif" font-size="14.00" fill="#000000">0, h, r1, r2, t</text>
</g>
<!-- 32 -->
<g id="node16" class="node">
<title>32</title>
<ellipse fill="none" stroke="#000000" cx="1550.2607" cy="-284.4" rx="27" ry="18"/>
<text text-anchor="middle" x="1550.2607" y="-280.2" font-family="Times,serif" font-size="14.00" fill="#000000">0, b</text>
</g>
<!-- 48 -->
<g id="node17" class="node">
<title>48</title>
<ellipse fill="none" stroke="#000000" cx="1628.2607" cy="-284.4" rx="33.0682" ry="18"/>
<text text-anchor="middle" x="1628.2607" y="-280.2" font-family="Times,serif" font-size="14.00" fill="#000000">0, t, b</text>
</g>
<!-- 34 -->
<g id="node18" class="node">
<title>34</title>
<ellipse fill="none" stroke="#000000" cx="1714.2607" cy="-284.4" rx="35.3587" ry="18"/>
<text text-anchor="middle" x="1714.2607" y="-280.2" font-family="Times,serif" font-size="14.00" fill="#000000">0, h, b</text>
</g>
<!-- 50 -->
<g id="node19" class="node">
<title>50</title>
<ellipse fill="none" stroke="#000000" cx="1810.2607" cy="-284.4" rx="42.8829" ry="18"/>
<text text-anchor="middle" x="1810.2607" y="-280.2" font-family="Times,serif" font-size="14.00" fill="#000000">0, h, t, b</text>
</g>
<!-- 40 -->
<g id="node20" class="node">
<title>40</title>
<ellipse fill="none" stroke="#000000" cx="1909.2607" cy="-284.4" rx="38.2876" ry="18"/>
<text text-anchor="middle" x="1909.2607" y="-280.2" font-family="Times,serif" font-size="14.00" fill="#000000">0, r2, b</text>
</g>
<!-- 56 -->
<g id="node21" class="node">
<title>56</title>
<ellipse fill="none" stroke="#000000" cx="2011.2607" cy="-284.4" rx="45.8118" ry="18"/>
<text text-anchor="middle" x="2011.2607" y="-280.2" font-family="Times,serif" font-size="14.00" fill="#000000">0, r2, t, b</text>
</g>
<!-- 36 -->
<g id="node22" class="node">
<title>36</title>
<ellipse fill="none" stroke="#000000" cx="2113.2607" cy="-284.4" rx="38.2876" ry="18"/>
<text text-anchor="middle" x="2113.2607" y="-280.2" font-family="Times,serif" font-size="14.00" fill="#000000">0, r1, b</text>
</g>
<!-- 52 -->
<g id="node23" class="node">
<title>52</title>
<ellipse fill="none" stroke="#000000" cx="2215.2607" cy="-284.4" rx="45.8118" ry="18"/>
<text text-anchor="middle" x="2215.2607" y="-280.2" font-family="Times,serif" font-size="14.00" fill="#000000">0, r1, t, b</text>
</g>
<!-- 42 -->
<g id="node24" class="node">
<title>42</title>
<ellipse fill="none" stroke="#000000" cx="2327.2607" cy="-284.4" rx="48.1013" ry="18"/>
<text text-anchor="middle" x="2327.2607" y="-280.2" font-family="Times,serif" font-size="14.00" fill="#000000">0, h, r2, b</text>
</g>
<!-- 58 -->
<g id="node25" class="node">
<title>58</title>
<ellipse fill="none" stroke="#000000" cx="2449.2607" cy="-284.4" rx="55.6256" ry="18"/>
<text text-anchor="middle" x="2449.2607" y="-280.2" font-family="Times,serif" font-size="14.00" fill="#000000">0, h, r2, t, b</text>
</g>
<!-- 38 -->
<g id="node26" class="node">
<title>38</title>
<ellipse fill="none" stroke="#000000" cx="2571.2607" cy="-284.4" rx="48.1013" ry="18"/>
<text text-anchor="middle" x="2571.2607" y="-280.2" font-family="Times,serif" font-size="14.00" fill="#000000">0, h, r1, b</text>
</g>
<!-- 54 -->
<g id="node27" class="node">
<title>54</title>
<ellipse fill="none" stroke="#000000" cx="2693.2607" cy="-284.4" rx="55.6256" ry="18"/>
<text text-anchor="middle" x="2693.2607" y="-280.2" font-family="Times,serif" font-size="14.00" fill="#000000">0, h, r1, t, b</text>
</g>
<!-- 44 -->
<g id="node28" class="node">
<title>44</title>
<ellipse fill="none" stroke="#000000" cx="2818.2607" cy="-284.4" rx="51.0319" ry="18"/>
<text text-anchor="middle" x="2818.2607" y="-280.2" font-family="Times,serif" font-size="14.00" fill="#000000">0, r1, r2, b</text>
</g>
<!-- 60 -->
<g id="node29" class="node">
<title>60</title>
<ellipse fill="none" stroke="#000000" cx="2946.2607" cy="-284.4" rx="58.5559" ry="18"/>
<text text-anchor="middle" x="2946.2607" y="-280.2" font-family="Times,serif" font-size="14.00" fill="#000000">0, r1, r2, t, b</text>
</g>
<!-- 46 -->
<g id="node30" class="node">
<title>46</title>
<ellipse fill="none" stroke="#000000" cx="3084.2607" cy="-284.4" rx="60.8448" ry="18"/>
<text text-anchor="middle" x="3084.2607" y="-280.2" font-family="Times,serif" font-size="14.00" fill="#000000">0, h, r1, r2, b</text>
</g>
<!-- 62 -->
<g id="node31" class="node">
<title>62</title>
<ellipse fill="none" stroke="#000000" cx="3231.2607" cy="-284.4" rx="68.369" ry="18"/>
<text text-anchor="middle" x="3231.2607" y="-280.2" font-family="Times,serif" font-size="14.00" fill="#000000">0, h, r1, r2, t, b</text>
</g>
<!-- 4&#45;&gt;0 -->
<g id="edge4" class="edge">
<title>4-&gt;0</title>
<path fill="none" stroke="#00ff00" d="M466.3134,-210.6431C476.3808,-221.8916 485.7997,-237.1975 476.2607,-248.4 473.2489,-251.937 352.4593,-269.97 289.9415,-279.0954"/>
<polygon fill="#00ff00" stroke="#00ff00" points="289.1017,-275.6806 279.7104,-280.5851 290.1104,-282.6076 289.1017,-275.6806"/>
<text text-anchor="middle" x="519.3228" y="-235.8" font-family="Times,serif" font-size="14.00" fill="#000000">-r1, -b, -r2 (0)</text>
</g>
<!-- 4&#45;&gt;20 -->
<g id="edge11" class="edge">
<title>4-&gt;20</title>
<path fill="none" stroke="#00ff00" d="M422.98,-188.9995C397.6931,-182.2639 362.8073,-171.1815 354.7971,-159.6 346.2175,-147.1952 356.5691,-134.8108 369.98,-125.1569"/>
<polygon fill="#00ff00" stroke="#00ff00" points="372.1351,-127.9294 378.5837,-119.523 368.3003,-122.0732 372.1351,-127.9294"/>
<text text-anchor="middle" x="391.9925" y="-147" font-family="Times,serif" font-size="14.00" fill="#000000">r1, -b, -r2 (0)</text>
</g>
<!-- 4&#45;&gt;4 -->
<g id="edge10" class="edge">
<title>4-&gt;4</title>
<path fill="none" stroke="#00ff00" d="M476.214,-203.7513C487.4108,-204.4187 496.9974,-201.7016 496.9974,-195.6 496.9974,-191.5005 492.6699,-188.9288 486.434,-187.8849"/>
<polygon fill="#00ff00" stroke="#00ff00" points="486.3542,-184.3784 476.214,-187.4487 486.0556,-191.3721 486.3542,-184.3784"/>
<text text-anchor="middle" x="533.7292" y="-191.4" font-family="Times,serif" font-size="14.00" fill="#000000">r1, -b, -r2 (0)</text>
</g>
<!-- 37 -->
<g id="node33" class="node">
<title>37</title>
<ellipse fill="none" stroke="#000000" cx="592.2607" cy="-106.8" rx="38.2876" ry="18"/>
<text text-anchor="middle" x="592.2607" y="-102.6" font-family="Times,serif" font-size="14.00" fill="#000000">1, r1, b</text>
</g>
<!-- 4&#45;&gt;37 -->
<g id="edge14" class="edge">
<title>4-&gt;37</title>
<path fill="none" stroke="#00ff00" d="M472.0572,-183.6399C484.291,-176.804 499.7635,-167.9526 513.2607,-159.6 529.6403,-149.4636 547.5132,-137.5894 562.1095,-127.6714"/>
<polygon fill="#00ff00" stroke="#00ff00" points="564.4483,-130.3124 570.7317,-121.7819 560.5,-124.5322 564.4483,-130.3124"/>
<text text-anchor="middle" x="572.6622" y="-147" font-family="Times,serif" font-size="14.00" fill="#000000">r1, b, -r2 (0)</text>
</g>
<!-- 53 -->
<g id="node34" class="node">
<title>53</title>
<ellipse fill="none" stroke="#000000" cx="3363.2607" cy="-284.4" rx="45.8118" ry="18"/>
<text text-anchor="middle" x="3363.2607" y="-280.2" font-family="Times,serif" font-size="14.00" fill="#000000">1, r1, t, b</text>
</g>
<!-- 39 -->
<g id="node35" class="node">
<title>39</title>
<ellipse fill="none" stroke="#000000" cx="3475.2607" cy="-284.4" rx="48.1013" ry="18"/>
<text text-anchor="middle" x="3475.2607" y="-280.2" font-family="Times,serif" font-size="14.00" fill="#000000">1, h, r1, b</text>
</g>
<!-- 55 -->
<g id="node36" class="node">
<title>55</title>
<ellipse fill="none" stroke="#000000" cx="3597.2607" cy="-284.4" rx="55.6256" ry="18"/>
<text text-anchor="middle" x="3597.2607" y="-280.2" font-family="Times,serif" font-size="14.00" fill="#000000">1, h, r1, t, b</text>
</g>
<!-- 33 -->
<g id="node37" class="node">
<title>33</title>
<ellipse fill="none" stroke="#000000" cx="3698.2607" cy="-284.4" rx="27" ry="18"/>
<text text-anchor="middle" x="3698.2607" y="-280.2" font-family="Times,serif" font-size="14.00" fill="#000000">1, b</text>
</g>
<!-- 49 -->
<g id="node38" class="node">
<title>49</title>
<ellipse fill="none" stroke="#000000" cx="3776.2607" cy="-284.4" rx="33.0682" ry="18"/>
<text text-anchor="middle" x="3776.2607" y="-280.2" font-family="Times,serif" font-size="14.00" fill="#000000">1, t, b</text>
</g>
<!-- 9 -->
<g id="node39" class="node">
<title>9</title>
<ellipse fill="none" stroke="#000000" cx="650.2607" cy="-18" rx="28.9754" ry="18"/>
<text text-anchor="middle" x="650.2607" y="-13.8" font-family="Times,serif" font-size="14.00" fill="#000000">1, r2</text>
</g>
<!-- 9&#45;&gt;9 -->
<g id="edge22" class="edge">
<title>9-&gt;9</title>
<path fill="none" stroke="#00ff00" d="M676.214,-26.1513C687.4108,-26.8187 696.9974,-24.1016 696.9974,-18 696.9974,-13.9005 692.6699,-11.3288 686.434,-10.2849"/>
<polygon fill="#00ff00" stroke="#00ff00" points="686.3542,-6.7784 676.214,-9.8487 686.0556,-13.7721 686.3542,-6.7784"/>
<text text-anchor="middle" x="733.7292" y="-13.8" font-family="Times,serif" font-size="14.00" fill="#000000">-r1, -b, r2 (0)</text>
</g>
<!-- 1 -->
<g id="node57" class="node">
<title>1</title>
<ellipse fill="none" stroke="#000000" cx="740.2607" cy="-106.8" rx="27" ry="18"/>
<text text-anchor="middle" x="740.2607" y="-102.6" font-family="Times,serif" font-size="14.00" fill="#000000">1</text>
</g>
<!-- 9&#45;&gt;1 -->
<g id="edge17" class="edge">
<title>9-&gt;1</title>
<path fill="none" stroke="#00ff00" d="M661.3401,-34.6771C669.012,-45.5857 679.8423,-59.7997 691.1365,-70.8 697.5606,-77.0569 705.1199,-83.1194 712.3571,-88.4294"/>
<polygon fill="#00ff00" stroke="#00ff00" points="710.4352,-91.3571 720.6178,-94.2839 714.4828,-85.646 710.4352,-91.3571"/>
<text text-anchor="middle" x="730.3228" y="-58.2" font-family="Times,serif" font-size="14.00" fill="#000000">-r1, -b, -r2 (0)</text>
</g>
<!-- 41 -->
<g id="node40" class="node">
<title>41</title>
<ellipse fill="none" stroke="#000000" cx="3865.2607" cy="-284.4" rx="38.2876" ry="18"/>
<text text-anchor="middle" x="3865.2607" y="-280.2" font-family="Times,serif" font-size="14.00" fill="#000000">1, r2, b</text>
</g>
<!-- 25 -->
<g id="node41" class="node">
<title>25</title>
<ellipse fill="none" stroke="#000000" cx="3958.2607" cy="-284.4" rx="36.4994" ry="18"/>
<text text-anchor="middle" x="3958.2607" y="-280.2" font-family="Times,serif" font-size="14.00" fill="#000000">1, r2, t</text>
</g>
<!-- 57 -->
<g id="node42" class="node">
<title>57</title>
<ellipse fill="none" stroke="#000000" cx="4058.2607" cy="-284.4" rx="45.8118" ry="18"/>
<text text-anchor="middle" x="4058.2607" y="-280.2" font-family="Times,serif" font-size="14.00" fill="#000000">1, r2, t, b</text>
</g>
<!-- 45 -->
<g id="node43" class="node">
<title>45</title>
<ellipse fill="none" stroke="#000000" cx="4173.2607" cy="-284.4" rx="51.0319" ry="18"/>
<text text-anchor="middle" x="4173.2607" y="-280.2" font-family="Times,serif" font-size="14.00" fill="#000000">1, r1, r2, b</text>
</g>
<!-- 61 -->
<g id="node44" class="node">
<title>61</title>
<ellipse fill="none" stroke="#000000" cx="4301.2607" cy="-284.4" rx="58.5559" ry="18"/>
<text text-anchor="middle" x="4301.2607" y="-280.2" font-family="Times,serif" font-size="14.00" fill="#000000">1, r1, r2, t, b</text>
</g>
<!-- 35 -->
<g id="node45" class="node">
<title>35</title>
<ellipse fill="none" stroke="#000000" cx="4413.2607" cy="-284.4" rx="35.3587" ry="18"/>
<text text-anchor="middle" x="4413.2607" y="-280.2" font-family="Times,serif" font-size="14.00" fill="#000000">1, h, b</text>
</g>
<!-- 51 -->
<g id="node46" class="node">
<title>51</title>
<ellipse fill="none" stroke="#000000" cx="4509.2607" cy="-284.4" rx="42.8829" ry="18"/>
<text text-anchor="middle" x="4509.2607" y="-280.2" font-family="Times,serif" font-size="14.00" fill="#000000">1, h, t, b</text>
</g>
<!-- 11 -->
<g id="node47" class="node">
<title>11</title>
<ellipse fill="none" stroke="#000000" cx="4608.2607" cy="-284.4" rx="38.2876" ry="18"/>
<text text-anchor="middle" x="4608.2607" y="-280.2" font-family="Times,serif" font-size="14.00" fill="#000000">1, h, r2</text>
</g>
<!-- 43 -->
<g id="node48" class="node">
<title>43</title>
<ellipse fill="none" stroke="#000000" cx="4712.2607" cy="-284.4" rx="48.1013" ry="18"/>
<text text-anchor="middle" x="4712.2607" y="-280.2" font-family="Times,serif" font-size="14.00" fill="#000000">1, h, r2, b</text>
</g>
<!-- 27 -->
<g id="node49" class="node">
<title>27</title>
<ellipse fill="none" stroke="#000000" cx="4824.2607" cy="-284.4" rx="45.8118" ry="18"/>
<text text-anchor="middle" x="4824.2607" y="-280.2" font-family="Times,serif" font-size="14.00" fill="#000000">1, h, r2, t</text>
</g>
<!-- 59 -->
<g id="node50" class="node">
<title>59</title>
<ellipse fill="none" stroke="#000000" cx="4943.2607" cy="-284.4" rx="55.6256" ry="18"/>
<text text-anchor="middle" x="4943.2607" y="-280.2" font-family="Times,serif" font-size="14.00" fill="#000000">1, h, r2, t, b</text>
</g>
<!-- 47 -->
<g id="node51" class="node">
<title>47</title>
<ellipse fill="none" stroke="#000000" cx="5077.2607" cy="-284.4" rx="60.8448" ry="18"/>
<text text-anchor="middle" x="5077.2607" y="-280.2" font-family="Times,serif" font-size="14.00" fill="#000000">1, h, r1, r2, b</text>
</g>
<!-- 63 -->
<g id="node52" class="node">
<title>63</title>
<ellipse fill="none" stroke="#000000" cx="5224.2607" cy="-284.4" rx="68.369" ry="18"/>
<text text-anchor="middle" x="5224.2607" y="-280.2" font-family="Times,serif" font-size="14.00" fill="#000000">1, h, r1, r2, t, b</text>
</g>
<!-- 13 -->
<g id="node53" class="node">
<title>13</title>
<ellipse fill="none" stroke="#000000" cx="5352.2607" cy="-284.4" rx="41.7172" ry="18"/>
<text text-anchor="middle" x="5352.2607" y="-280.2" font-family="Times,serif" font-size="14.00" fill="#000000">1, r1, r2</text>
</g>
<!-- 29 -->
<g id="node54" class="node">
<title>29</title>
<ellipse fill="none" stroke="#000000" cx="5461.2607" cy="-284.4" rx="49.2415" ry="18"/>
<text text-anchor="middle" x="5461.2607" y="-280.2" font-family="Times,serif" font-size="14.00" fill="#000000">1, r1, r2, t</text>
</g>
<!-- 15 -->
<g id="node55" class="node">
<title>15</title>
<ellipse fill="none" stroke="#000000" cx="5579.2607" cy="-284.4" rx="51.0319" ry="18"/>
<text text-anchor="middle" x="5579.2607" y="-280.2" font-family="Times,serif" font-size="14.00" fill="#000000">1, h, r1, r2</text>
</g>
<!-- 31 -->
<g id="node56" class="node">
<title>31</title>
<ellipse fill="none" stroke="#000000" cx="5707.2607" cy="-284.4" rx="58.5559" ry="18"/>
<text text-anchor="middle" x="5707.2607" y="-280.2" font-family="Times,serif" font-size="14.00" fill="#000000">1, h, r1, r2, t</text>
</g>
<!-- 1&#45;&gt;9 -->
<g id="edge21" class="edge">
<title>1-&gt;9</title>
<path fill="none" stroke="#00ff00" d="M714.232,-101.9072C675.6011,-94.3852 606.858,-79.8988 599.7971,-70.8 589.6303,-57.699 603.0213,-44.2038 618.5538,-34.1363"/>
<polygon fill="#00ff00" stroke="#00ff00" points="620.4849,-37.0595 627.2673,-28.9201 616.8894,-31.0534 620.4849,-37.0595"/>
<text text-anchor="middle" x="636.9925" y="-58.2" font-family="Times,serif" font-size="14.00" fill="#000000">-r1, -b, r2 (0)</text>
</g>
<!-- 1&#45;&gt;1 -->
<g id="edge15" class="edge">
<title>1-&gt;1</title>
<path fill="none" stroke="#00ff00" d="M764.7931,-114.9211C775.7685,-115.6945 785.2607,-112.9875 785.2607,-106.8 785.2607,-102.6428 780.9757,-100.0567 774.835,-99.0417"/>
<polygon fill="#00ff00" stroke="#00ff00" points="774.913,-95.5424 764.7931,-98.6789 774.6602,-102.5378 774.913,-95.5424"/>
<text text-anchor="middle" x="824.3228" y="-102.6" font-family="Times,serif" font-size="14.00" fill="#000000">-r1, -b, -r2 (0)</text>
</g>
<!-- 3 -->
<g id="node61" class="node">
<title>3</title>
<ellipse fill="none" stroke="#000000" cx="831.2607" cy="-18" rx="27" ry="18"/>
<text text-anchor="middle" x="831.2607" y="-13.8" font-family="Times,serif" font-size="14.00" fill="#000000">1, h</text>
</g>
<!-- 1&#45;&gt;3 -->
<g id="edge16" class="edge">
<title>1-&gt;3</title>
<path fill="none" stroke="#00ff00" d="M755.0427,-91.3483C765.3142,-80.7124 779.3931,-66.3329 792.1365,-54 797.0116,-49.2819 802.3124,-44.3055 807.3926,-39.608"/>
<polygon fill="#00ff00" stroke="#00ff00" points="810.1004,-41.8735 815.1013,-32.5331 805.3672,-36.7162 810.1004,-41.8735"/>
<text text-anchor="middle" x="831.3228" y="-58.2" font-family="Times,serif" font-size="14.00" fill="#000000">-r1, -b, -r2 (0)</text>
</g>
<!-- 5 -->
<g id="node64" class="node">
<title>5</title>
<ellipse fill="none" stroke="#000000" cx="831.2607" cy="-195.6" rx="28.9754" ry="18"/>
<text text-anchor="middle" x="831.2607" y="-191.4" font-family="Times,serif" font-size="14.00" fill="#000000">1, r1</text>
</g>
<!-- 1&#45;&gt;5 -->
<g id="edge23" class="edge">
<title>1-&gt;5</title>
<path fill="none" stroke="#00ff00" d="M764.6576,-114.7061C779.2354,-120.4969 797.2036,-129.6575 809.2607,-142.8 815.7967,-149.9244 820.5432,-159.2666 823.9161,-168.1093"/>
<polygon fill="#00ff00" stroke="#00ff00" points="820.6505,-169.3787 827.1627,-177.7358 827.2834,-167.1417 820.6505,-169.3787"/>
<text text-anchor="middle" x="856.9925" y="-147" font-family="Times,serif" font-size="14.00" fill="#000000">r1, -b, -r2 (0)</text>
</g>
<!-- 17 -->
<g id="node58" class="node">
<title>17</title>
<ellipse fill="none" stroke="#000000" cx="5811.2607" cy="-284.4" rx="27" ry="18"/>
<text text-anchor="middle" x="5811.2607" y="-280.2" font-family="Times,serif" font-size="14.00" fill="#000000">1, t</text>
</g>
<!-- 19 -->
<g id="node59" class="node">
<title>19</title>
<ellipse fill="none" stroke="#000000" cx="5889.2607" cy="-284.4" rx="33.0682" ry="18"/>
<text text-anchor="middle" x="5889.2607" y="-280.2" font-family="Times,serif" font-size="14.00" fill="#000000">1, h, t</text>
</g>
<!-- 21 -->
<g id="node60" class="node">
<title>21</title>
<ellipse fill="none" stroke="#000000" cx="975.2607" cy="-106.8" rx="36.4994" ry="18"/>
<text text-anchor="middle" x="975.2607" y="-102.6" font-family="Times,serif" font-size="14.00" fill="#000000">1, r1, t</text>
</g>
<!-- 21&#45;&gt;21 -->
<g id="edge27" class="edge">
<title>21-&gt;21</title>
<path fill="none" stroke="#00ff00" d="M1007.5627,-115.0319C1019.6005,-115.3018 1029.5095,-112.5578 1029.5095,-106.8 1029.5095,-102.8415 1024.826,-100.3075 1017.9871,-99.1981"/>
<polygon fill="#00ff00" stroke="#00ff00" points="1017.7556,-95.6778 1007.5627,-98.5681 1017.3333,-102.665 1017.7556,-95.6778"/>
<text text-anchor="middle" x="1066.2413" y="-102.6" font-family="Times,serif" font-size="14.00" fill="#000000">r1, -b, -r2 (0)</text>
</g>
<!-- 21&#45;&gt;5 -->
<g id="edge26" class="edge">
<title>21-&gt;5</title>
<path fill="none" stroke="#00ff00" d="M991.9115,-123.1783C1001.1138,-134.2277 1009.0665,-148.7209 1000.2607,-159.6 984.2294,-179.4059 915.0537,-188.7785 870.3261,-192.8431"/>
<polygon fill="#00ff00" stroke="#00ff00" points="869.7449,-189.38 860.0802,-193.721 870.3425,-196.3544 869.7449,-189.38"/>
<text text-anchor="middle" x="1039.9925" y="-147" font-family="Times,serif" font-size="14.00" fill="#000000">r1, -b, -r2 (0)</text>
</g>
<!-- 3&#45;&gt;1 -->
<g id="edge19" class="edge">
<title>3-&gt;1</title>
<path fill="none" stroke="#00ff00" d="M850.8195,-30.4489C865.2384,-41.1952 880.6792,-57.1042 870.2607,-70.8 858.9531,-85.6644 811.2715,-95.9811 776.9307,-101.6468"/>
<polygon fill="#00ff00" stroke="#00ff00" points="776.0871,-98.2366 766.7566,-103.2557 777.1805,-105.1507 776.0871,-98.2366"/>
<text text-anchor="middle" x="913.3228" y="-58.2" font-family="Times,serif" font-size="14.00" fill="#000000">-r1, -b, -r2 (0)</text>
</g>
<!-- 3&#45;&gt;3 -->
<g id="edge20" class="edge">
<title>3-&gt;3</title>
<path fill="none" stroke="#00ff00" d="M855.7931,-26.1211C866.7685,-26.8945 876.2607,-24.1875 876.2607,-18 876.2607,-13.8428 871.9757,-11.2567 865.835,-10.2417"/>
<polygon fill="#00ff00" stroke="#00ff00" points="865.913,-6.7424 855.7931,-9.8789 865.6602,-13.7378 865.913,-6.7424"/>
<text text-anchor="middle" x="915.3228" y="-13.8" font-family="Times,serif" font-size="14.00" fill="#000000">-r1, -b, -r2 (0)</text>
</g>
<!-- 7 -->
<g id="node62" class="node">
<title>7</title>
<ellipse fill="none" stroke="#000000" cx="5978.2607" cy="-284.4" rx="38.2876" ry="18"/>
<text text-anchor="middle" x="5978.2607" y="-280.2" font-family="Times,serif" font-size="14.00" fill="#000000">1, h, r1</text>
</g>
<!-- 23 -->
<g id="node63" class="node">
<title>23</title>
<ellipse fill="none" stroke="#000000" cx="6080.2607" cy="-284.4" rx="45.8118" ry="18"/>
<text text-anchor="middle" x="6080.2607" y="-280.2" font-family="Times,serif" font-size="14.00" fill="#000000">1, h, r1, t</text>
</g>
<!-- 5&#45;&gt;37 -->
<g id="edge28" class="edge">
<title>5-&gt;37</title>
<path fill="none" stroke="#00ff00" d="M802.6133,-194.1468C766.4381,-191.353 703.0578,-183.2186 654.4577,-159.6 639.7982,-152.4758 625.7509,-141.0883 614.7272,-130.7094"/>
<polygon fill="#00ff00" stroke="#00ff00" points="616.8627,-127.9019 607.2692,-123.4057 611.9649,-132.9031 616.8627,-127.9019"/>
<text text-anchor="middle" x="689.6622" y="-147" font-family="Times,serif" font-size="14.00" fill="#000000">r1, b, -r2 (0)</text>
</g>
<!-- 5&#45;&gt;1 -->
<g id="edge18" class="edge">
<title>5-&gt;1</title>
<path fill="none" stroke="#00ff00" d="M804.157,-189.5539C777.5514,-183.0048 739.7425,-171.8397 731.1365,-159.6 725.8494,-152.0806 726.0032,-142.4996 728.1853,-133.5687"/>
<polygon fill="#00ff00" stroke="#00ff00" points="731.5634,-134.4984 731.329,-123.9062 724.9068,-132.3327 731.5634,-134.4984"/>
<text text-anchor="middle" x="770.3228" y="-147" font-family="Times,serif" font-size="14.00" fill="#000000">-r1, -b, -r2 (0)</text>
</g>
<!-- 5&#45;&gt;21 -->
<g id="edge25" class="edge">
<title>5-&gt;21</title>
<path fill="none" stroke="#00ff00" d="M853.5603,-184.1194C866.4935,-177.2925 882.9935,-168.2925 897.2607,-159.6 913.6823,-149.5948 931.4756,-137.6404 945.9154,-127.6387"/>
<polygon fill="#00ff00" stroke="#00ff00" points="948.2316,-130.2905 954.4306,-121.6985 944.2265,-124.5494 948.2316,-130.2905"/>
<text text-anchor="middle" x="959.9925" y="-147" font-family="Times,serif" font-size="14.00" fill="#000000">r1, -b, -r2 (0)</text>
</g>
<!-- 5&#45;&gt;5 -->
<g id="edge24" class="edge">
<title>5-&gt;5</title>
<path fill="none" stroke="#00ff00" d="M857.214,-203.7513C868.4108,-204.4187 877.9974,-201.7016 877.9974,-195.6 877.9974,-191.5005 873.6699,-188.9288 867.434,-187.8849"/>
<polygon fill="#00ff00" stroke="#00ff00" points="867.3542,-184.3784 857.214,-187.4487 867.0556,-191.3721 867.3542,-184.3784"/>
<text text-anchor="middle" x="914.7292" y="-191.4" font-family="Times,serif" font-size="14.00" fill="#000000">r1, -b, -r2 (0)</text>
</g>
</g>
</svg>