<?xml version="1.0" encoding="UTF-8" standalone="no"?><!DOCTYPE svg PUBLIC "-//W3C//DTD SVG 1.1//EN" "http://www.w3.org/Graphics/SVG/1.1/DTD/svg11.dtd"><!-- Generated by graphviz version 2.40.1 (20161225.0304)
 --><!-- Title: G Pages: 1 --><svg xmlns="http://www.w3.org/2000/svg" xmlns:xlink="http://www.w3.org/1999/xlink" width="6114pt" height="488pt" viewBox="0.00 0.00 6113.91 488.00">
<g id="graph0" class="graph" transform="scale(1 1) rotate(0) translate(4 484)">
<title>G</title>
<polygon fill="#ffffff" stroke="transparent" points="-4,4 -4,-484 6109.9058,-484 6109.9058,4 -4,4"/>
<!-- 0 -->
<g id="node1" class="node">
<title>0</title>
<ellipse fill="none" stroke="#000000" cx="27" cy="-462" rx="27" ry="18"/>
<text text-anchor="middle" x="27" y="-457.8" font-family="Times,serif" font-size="14.00" fill="#000000">0</text>
</g>
<!-- 16 -->
<g id="node2" class="node">
<title>16</title>
<ellipse fill="none" stroke="#000000" cx="99" cy="-462" rx="27" ry="18"/>
<text text-anchor="middle" x="99" y="-457.8" font-family="Times,serif" font-size="14.00" fill="#000000">0, t</text>
</g>
<!-- 32 -->
<g id="node3" class="node">
<title>32</title>
<ellipse fill="none" stroke="#000000" cx="171" cy="-462" rx="27" ry="18"/>
<text text-anchor="middle" x="171" y="-457.8" font-family="Times,serif" font-size="14.00" fill="#000000">0, b</text>
</g>
<!-- 48 -->
<g id="node4" class="node">
<title>48</title>
<ellipse fill="none" stroke="#000000" cx="249" cy="-462" rx="33.0682" ry="18"/>
<text text-anchor="middle" x="249" y="-457.8" font-family="Times,serif" font-size="14.00" fill="#000000">0, t, b</text>
</g>
<!-- 24 -->
<g id="node5" class="node">
<title>24</title>
<ellipse fill="none" stroke="#000000" cx="336" cy="-462" rx="36.4994" ry="18"/>
<text text-anchor="middle" x="336" y="-457.8" font-family="Times,serif" font-size="14.00" fill="#000000">0, r2, t</text>
</g>
<!-- 18 -->
<g id="node6" class="node">
<title>18</title>
<ellipse fill="none" stroke="#000000" cx="423" cy="-462" rx="33.0682" ry="18"/>
<text text-anchor="middle" x="423" y="-457.8" font-family="Times,serif" font-size="14.00" fill="#000000">0, h, t</text>
</g>
<!-- 20 -->
<g id="node7" class="node">
<title>20</title>
<ellipse fill="none" stroke="#000000" cx="510" cy="-462" rx="36.4994" ry="18"/>
<text text-anchor="middle" x="510" y="-457.8" font-family="Times,serif" font-size="14.00" fill="#000000">0, r1, t</text>
</g>
<!-- 20&#45;&gt;20 -->
<g id="edge10" class="edge">
<title>20-&gt;20</title>
<path fill="none" stroke="#00ff00" d="M542.302,-470.2319C554.3399,-470.5018 564.2489,-467.7578 564.2489,-462 564.2489,-458.0415 559.5653,-455.5075 552.7264,-454.3981"/>
<polygon fill="#00ff00" stroke="#00ff00" points="552.495,-450.8778 542.302,-453.7681 552.0727,-457.865 552.495,-450.8778"/>
<text text-anchor="middle" x="600.9807" y="-457.8" font-family="Times,serif" font-size="14.00" fill="#000000">r1, -b, -r2 (0)</text>
</g>
<!-- 4 -->
<g id="node32" class="node">
<title>4</title>
<ellipse fill="none" stroke="#000000" cx="584" cy="-373.2" rx="28.9754" ry="18"/>
<text text-anchor="middle" x="584" y="-369" font-family="Times,serif" font-size="14.00" fill="#000000">0, r1</text>
</g>
<!-- 20&#45;&gt;4 -->
<g id="edge9" class="edge">
<title>20-&gt;4</title>
<path fill="none" stroke="#00ff00" d="M492.631,-446.1111C482.9338,-435.2801 474.3105,-420.8469 482.5364,-409.2 490.247,-398.2827 521.0087,-388.328 546.66,-381.6676"/>
<polygon fill="#00ff00" stroke="#00ff00" points="547.6882,-385.0183 556.539,-379.1948 545.9884,-378.2278 547.6882,-385.0183"/>
<text text-anchor="middle" x="519.7318" y="-413.4" font-family="Times,serif" font-size="14.00" fill="#000000">r1, -b, -r2 (0)</text>
</g>
<!-- 2 -->
<g id="node8" class="node">
<title>2</title>
<ellipse fill="none" stroke="#000000" cx="493" cy="-284.4" rx="27" ry="18"/>
<text text-anchor="middle" x="493" y="-280.2" font-family="Times,serif" font-size="14.00" fill="#000000">0, h</text>
</g>
<!-- 2&#45;&gt;2 -->
<g id="edge3" class="edge">
<title>2-&gt;2</title>
<path fill="none" stroke="#00ff00" d="M517.5325,-292.5211C528.5078,-293.2945 538,-290.5875 538,-284.4 538,-280.2428 533.7151,-277.6567 527.5743,-276.6417"/>
<polygon fill="#00ff00" stroke="#00ff00" points="527.6524,-273.1424 517.5325,-276.2789 527.3995,-280.1378 527.6524,-273.1424"/>
<text text-anchor="middle" x="577.0621" y="-280.2" font-family="Times,serif" font-size="14.00" fill="#000000">-r1, -b, -r2 (0)</text>
</g>
<!-- 8 -->
<g id="node11" class="node">
<title>8</title>
<ellipse fill="none" stroke="#000000" cx="509" cy="-195.6" rx="28.9754" ry="18"/>
<text text-anchor="middle" x="509" y="-191.4" font-family="Times,serif" font-size="14.00" fill="#000000">0, r2</text>
</g>
<!-- 2&#45;&gt;8 -->
<g id="edge5" class="edge">
<title>2-&gt;8</title>
<path fill="none" stroke="#00ff00" d="M468.5246,-276.1644C445.7102,-267.0744 416.9539,-251.1139 429.5364,-231.6 438.916,-217.0534 455.7571,-208.3201 471.5286,-203.1088"/>
<polygon fill="#00ff00" stroke="#00ff00" points="472.5192,-206.4658 481.1341,-200.2987 470.5536,-199.7474 472.5192,-206.4658"/>
<text text-anchor="middle" x="466.7318" y="-235.8" font-family="Times,serif" font-size="14.00" fill="#000000">-r1, -b, r2 (0)</text>
</g>
<!-- 2&#45;&gt;4 -->
<g id="edge11" class="edge">
<title>2-&gt;4</title>
<path fill="none" stroke="#00ff00" d="M517.4891,-292.0264C532.366,-297.7521 550.7826,-306.9433 563,-320.4 569.4561,-327.511 574.0389,-336.85 577.2395,-345.6938"/>
<polygon fill="#00ff00" stroke="#00ff00" points="573.9338,-346.8484 580.292,-355.3233 580.6066,-344.7331 573.9338,-346.8484"/>
<text text-anchor="middle" x="610.7318" y="-324.6" font-family="Times,serif" font-size="14.00" fill="#000000">r1, -b, -r2 (0)</text>
</g>
<!-- 34 -->
<g id="node9" class="node">
<title>34</title>
<ellipse fill="none" stroke="#000000" cx="834" cy="-462" rx="35.3587" ry="18"/>
<text text-anchor="middle" x="834" y="-457.8" font-family="Times,serif" font-size="14.00" fill="#000000">0, h, b</text>
</g>
<!-- 50 -->
<g id="node10" class="node">
<title>50</title>
<ellipse fill="none" stroke="#000000" cx="930" cy="-462" rx="42.8829" ry="18"/>
<text text-anchor="middle" x="930" y="-457.8" font-family="Times,serif" font-size="14.00" fill="#000000">0, h, t, b</text>
</g>
<!-- 8&#45;&gt;2 -->
<g id="edge1" class="edge">
<title>8-&gt;2</title>
<path fill="none" stroke="#00ff00" d="M509.7913,-213.8631C509.867,-224.1147 509.3458,-237.0823 507,-248.4 506.3671,-251.4534 505.5023,-254.5853 504.5106,-257.6664"/>
<polygon fill="#00ff00" stroke="#00ff00" points="501.1799,-256.5839 501.0392,-267.1778 507.7556,-258.9839 501.1799,-256.5839"/>
<text text-anchor="middle" x="549.0621" y="-235.8" font-family="Times,serif" font-size="14.00" fill="#000000">-r1, -b, -r2 (0)</text>
</g>
<!-- 8&#45;&gt;8 -->
<g id="edge4" class="edge">
<title>8-&gt;8</title>
<path fill="none" stroke="#00ff00" d="M534.9533,-203.7513C546.1501,-204.4187 555.7367,-201.7016 555.7367,-195.6 555.7367,-191.5005 551.4092,-188.9288 545.1733,-187.8849"/>
<polygon fill="#00ff00" stroke="#00ff00" points="545.0935,-184.3784 534.9533,-187.4487 544.7949,-191.3721 545.0935,-184.3784"/>
<text text-anchor="middle" x="592.4685" y="-191.4" font-family="Times,serif" font-size="14.00" fill="#000000">-r1, -b, r2 (0)</text>
</g>
<!-- 40 -->
<g id="node12" class="node">
<title>40</title>
<ellipse fill="none" stroke="#000000" cx="1029" cy="-462" rx="38.2876" ry="18"/>
<text text-anchor="middle" x="1029" y="-457.8" font-family="Times,serif" font-size="14.00" fill="#000000">0, r2, b</text>
</g>
<!-- 56 -->
<g id="node13" class="node">
<title>56</title>
<ellipse fill="none" stroke="#000000" cx="1131" cy="-462" rx="45.8118" ry="18"/>
<text text-anchor="middle" x="1131" y="-457.8" font-family="Times,serif" font-size="14.00" fill="#000000">0, r2, t, b</text>
</g>
<!-- 12 -->
<g id="node14" class="node">
<title>12</title>
<ellipse fill="none" stroke="#000000" cx="1237" cy="-462" rx="41.7172" ry="18"/>
<text text-anchor="middle" x="1237" y="-457.8" font-family="Times,serif" font-size="14.00" fill="#000000">0, r1, r2</text>
</g>
<!-- 10 -->
<g id="node15" class="node">
<title>10</title>
<ellipse fill="none" stroke="#000000" cx="1335" cy="-462" rx="38.2876" ry="18"/>
<text text-anchor="middle" x="1335" y="-457.8" font-family="Times,serif" font-size="14.00" fill="#000000">0, h, r2</text>
</g>
<!-- 28 -->
<g id="node16" class="node">
<title>28</title>
<ellipse fill="none" stroke="#000000" cx="1441" cy="-462" rx="49.2415" ry="18"/>
<text text-anchor="middle" x="1441" y="-457.8" font-family="Times,serif" font-size="14.00" fill="#000000">0, r1, r2, t</text>
</g>
<!-- 26 -->
<g id="node17" class="node">
<title>26</title>
<ellipse fill="none" stroke="#000000" cx="1554" cy="-462" rx="45.8118" ry="18"/>
<text text-anchor="middle" x="1554" y="-457.8" font-family="Times,serif" font-size="14.00" fill="#000000">0, h, r2, t</text>
</g>
<!-- 42 -->
<g id="node18" class="node">
<title>42</title>
<ellipse fill="none" stroke="#000000" cx="1666" cy="-462" rx="48.1013" ry="18"/>
<text text-anchor="middle" x="1666" y="-457.8" font-family="Times,serif" font-size="14.00" fill="#000000">0, h, r2, b</text>
</g>
<!-- 58 -->
<g id="node19" class="node">
<title>58</title>
<ellipse fill="none" stroke="#000000" cx="1788" cy="-462" rx="55.6256" ry="18"/>
<text text-anchor="middle" x="1788" y="-457.8" font-family="Times,serif" font-size="14.00" fill="#000000">0, h, r2, t, b</text>
</g>
<!-- 36 -->
<g id="node20" class="node">
<title>36</title>
<ellipse fill="none" stroke="#000000" cx="742" cy="-462" rx="38.2876" ry="18"/>
<text text-anchor="middle" x="742" y="-457.8" font-family="Times,serif" font-size="14.00" fill="#000000">0, r1, b</text>
</g>
<!-- 36&#45;&gt;4 -->
<g id="edge8" class="edge">
<title>36-&gt;4</title>
<path fill="none" stroke="#00ff00" d="M717.3125,-448.125C689.4685,-432.476 644.1779,-407.0215 614.2362,-390.1935"/>
<polygon fill="#00ff00" stroke="#00ff00" points="615.9054,-387.1168 605.473,-385.2684 612.4757,-393.219 615.9054,-387.1168"/>
<text text-anchor="middle" x="714.7318" y="-413.4" font-family="Times,serif" font-size="14.00" fill="#000000">r1, -b, -r2 (0)</text>
</g>
<!-- 37 -->
<g id="node34" class="node">
<title>37</title>
<ellipse fill="none" stroke="#000000" cx="706" cy="-284.4" rx="38.2876" ry="18"/>
<text text-anchor="middle" x="706" y="-280.2" font-family="Times,serif" font-size="14.00" fill="#000000">1, r1, b</text>
</g>
<!-- 36&#45;&gt;37 -->
<g id="edge13" class="edge">
<title>36-&gt;37</title>
<path fill="none" stroke="#00ff00" d="M748.0614,-443.8866C749.6758,-438.2255 751.194,-431.913 752,-426 756.545,-392.6567 756.7841,-346.7887 744,-320.4 741.5732,-315.3907 738.1324,-310.7176 734.3017,-306.5066"/>
<polygon fill="#00ff00" stroke="#00ff00" points="736.7071,-303.9633 727.1202,-299.4531 731.8021,-308.9574 736.7071,-303.9633"/>
<text text-anchor="middle" x="789.4015" y="-369" font-family="Times,serif" font-size="14.00" fill="#000000">r1, b, -r2 (0)</text>
</g>
<!-- 52 -->
<g id="node21" class="node">
<title>52</title>
<ellipse fill="none" stroke="#000000" cx="1907" cy="-462" rx="45.8118" ry="18"/>
<text text-anchor="middle" x="1907" y="-457.8" font-family="Times,serif" font-size="14.00" fill="#000000">0, r1, t, b</text>
</g>
<!-- 44 -->
<g id="node22" class="node">
<title>44</title>
<ellipse fill="none" stroke="#000000" cx="2022" cy="-462" rx="51.0319" ry="18"/>
<text text-anchor="middle" x="2022" y="-457.8" font-family="Times,serif" font-size="14.00" fill="#000000">0, r1, r2, b</text>
</g>
<!-- 60 -->
<g id="node23" class="node">
<title>60</title>
<ellipse fill="none" stroke="#000000" cx="2150" cy="-462" rx="58.5559" ry="18"/>
<text text-anchor="middle" x="2150" y="-457.8" font-family="Times,serif" font-size="14.00" fill="#000000">0, r1, r2, t, b</text>
</g>
<!-- 6 -->
<g id="node24" class="node">
<title>6</title>
<ellipse fill="none" stroke="#000000" cx="2265" cy="-462" rx="38.2876" ry="18"/>
<text text-anchor="middle" x="2265" y="-457.8" font-family="Times,serif" font-size="14.00" fill="#000000">0, h, r1</text>
</g>
<!-- 22 -->
<g id="node25" class="node">
<title>22</title>
<ellipse fill="none" stroke="#000000" cx="2367" cy="-462" rx="45.8118" ry="18"/>
<text text-anchor="middle" x="2367" y="-457.8" font-family="Times,serif" font-size="14.00" fill="#000000">0, h, r1, t</text>
</g>
<!-- 38 -->
<g id="node26" class="node">
<title>38</title>
<ellipse fill="none" stroke="#000000" cx="2479" cy="-462" rx="48.1013" ry="18"/>
<text text-anchor="middle" x="2479" y="-457.8" font-family="Times,serif" font-size="14.00" fill="#000000">0, h, r1, b</text>
</g>
<!-- 54 -->
<g id="node27" class="node">
<title>54</title>
<ellipse fill="none" stroke="#000000" cx="2601" cy="-462" rx="55.6256" ry="18"/>
<text text-anchor="middle" x="2601" y="-457.8" font-family="Times,serif" font-size="14.00" fill="#000000">0, h, r1, t, b</text>
</g>
<!-- 14 -->
<g id="node28" class="node">
<title>14</title>
<ellipse fill="none" stroke="#000000" cx="2726" cy="-462" rx="51.0319" ry="18"/>
<text text-anchor="middle" x="2726" y="-457.8" font-family="Times,serif" font-size="14.00" fill="#000000">0, h, r1, r2</text>
</g>
<!-- 30 -->
<g id="node29" class="node">
<title>30</title>
<ellipse fill="none" stroke="#000000" cx="2854" cy="-462" rx="58.5559" ry="18"/>
<text text-anchor="middle" x="2854" y="-457.8" font-family="Times,serif" font-size="14.00" fill="#000000">0, h, r1, r2, t</text>
</g>
<!-- 46 -->
<g id="node30" class="node">
<title>46</title>
<ellipse fill="none" stroke="#000000" cx="2992" cy="-462" rx="60.8448" ry="18"/>
<text text-anchor="middle" x="2992" y="-457.8" font-family="Times,serif" font-size="14.00" fill="#000000">0, h, r1, r2, b</text>
</g>
<!-- 62 -->
<g id="node31" class="node">
<title>62</title>
<ellipse fill="none" stroke="#000000" cx="3139" cy="-462" rx="68.369" ry="18"/>
<text text-anchor="middle" x="3139" y="-457.8" font-family="Times,serif" font-size="14.00" fill="#000000">0, h, r1, r2, t, b</text>
</g>
<!-- 4&#45;&gt;20 -->
<g id="edge7" class="edge">
<title>4-&gt;20</title>
<path fill="none" stroke="#00ff00" d="M578.4934,-391.1281C574.5441,-402.0046 568.4266,-415.7212 560,-426 555.058,-432.0282 548.8779,-437.5417 542.565,-442.3449"/>
<polygon fill="#00ff00" stroke="#00ff00" points="540.1093,-439.7957 533.9781,-448.4362 544.1594,-445.5051 540.1093,-439.7957"/>
<text text-anchor="middle" x="607.7318" y="-413.4" font-family="Times,serif" font-size="14.00" fill="#000000">r1, -b, -r2 (0)</text>
</g>
<!-- 4&#45;&gt;2 -->
<g id="edge2" class="edge">
<title>4-&gt;2</title>
<path fill="none" stroke="#00ff00" d="M556.6741,-366.9933C530.3591,-360.3972 493.3337,-349.2702 484.8758,-337.2 479.6167,-329.6948 479.6279,-320.117 481.6243,-311.1847"/>
<polygon fill="#00ff00" stroke="#00ff00" points="485.0028,-312.1041 484.5469,-301.5191 478.3024,-310.0781 485.0028,-312.1041"/>
<text text-anchor="middle" x="524.0621" y="-324.6" font-family="Times,serif" font-size="14.00" fill="#000000">-r1, -b, -r2 (0)</text>
</g>
<!-- 4&#45;&gt;4 -->
<g id="edge6" class="edge">
<title>4-&gt;4</title>
<path fill="none" stroke="#00ff00" d="M609.9533,-381.3513C621.1501,-382.0187 630.7367,-379.3016 630.7367,-373.2 630.7367,-369.1005 626.4092,-366.5288 620.1733,-365.4849"/>
<polygon fill="#00ff00" stroke="#00ff00" points="620.0935,-361.9784 609.9533,-365.0487 619.7949,-368.9721 620.0935,-361.9784"/>
<text text-anchor="middle" x="667.4685" y="-369" font-family="Times,serif" font-size="14.00" fill="#000000">r1, -b, -r2 (0)</text>
</g>
<!-- 4&#45;&gt;37 -->
<g id="edge12" class="edge">
<title>4-&gt;37</title>
<path fill="none" stroke="#00ff00" d="M607.5628,-362.5052C620.8445,-356.0037 637.4397,-347.0667 651,-337.2 662.4857,-328.8428 674.0066,-318.2141 683.515,-308.6868"/>
<polygon fill="#00ff00" stroke="#00ff00" points="686.196,-310.9506 690.6699,-301.3467 681.1834,-306.0645 686.196,-310.9506"/>
<text text-anchor="middle" x="705.4015" y="-324.6" font-family="Times,serif" font-size="14.00" fill="#000000">r1, b, -r2 (0)</text>
</g>
<!-- 53 -->
<g id="node33" class="node">
<title>53</title>
<ellipse fill="none" stroke="#000000" cx="3271" cy="-462" rx="45.8118" ry="18"/>
<text text-anchor="middle" x="3271" y="-457.8" font-family="Times,serif" font-size="14.00" fill="#000000">1, r1, t, b</text>
</g>
<!-- 37&#45;&gt;37 -->
<g id="edge26" class="edge">
<title>37-&gt;37</title>
<path fill="none" stroke="#00ff00" d="M740.1379,-292.6419C752.3981,-292.8192 762.3937,-290.0719 762.3937,-284.4 762.3937,-280.412 757.452,-277.8698 750.2561,-276.7735"/>
<polygon fill="#00ff00" stroke="#00ff00" points="750.332,-273.2717 740.1379,-276.1581 749.907,-280.2588 750.332,-273.2717"/>
<text text-anchor="middle" x="796.7952" y="-280.2" font-family="Times,serif" font-size="14.00" fill="#000000">r1, b, -r2 (0)</text>
</g>
<!-- 5 -->
<g id="node64" class="node">
<title>5</title>
<ellipse fill="none" stroke="#000000" cx="690" cy="-195.6" rx="28.9754" ry="18"/>
<text text-anchor="middle" x="690" y="-191.4" font-family="Times,serif" font-size="14.00" fill="#000000">1, r1</text>
</g>
<!-- 37&#45;&gt;5 -->
<g id="edge21" class="edge">
<title>37-&gt;5</title>
<path fill="none" stroke="#00ff00" d="M685.5001,-268.9233C679.5158,-263.204 673.7303,-256.1932 670.5364,-248.4 666.8907,-239.5041 668.9238,-229.6455 672.8085,-220.8788"/>
<polygon fill="#00ff00" stroke="#00ff00" points="675.981,-222.3668 677.5695,-211.8917 669.7954,-219.0899 675.981,-222.3668"/>
<text text-anchor="middle" x="707.7318" y="-235.8" font-family="Times,serif" font-size="14.00" fill="#000000">r1, -b, -r2 (0)</text>
</g>
<!-- 39 -->
<g id="node35" class="node">
<title>39</title>
<ellipse fill="none" stroke="#000000" cx="3383" cy="-462" rx="48.1013" ry="18"/>
<text text-anchor="middle" x="3383" y="-457.8" font-family="Times,serif" font-size="14.00" fill="#000000">1, h, r1, b</text>
</g>
<!-- 55 -->
<g id="node36" class="node">
<title>55</title>
<ellipse fill="none" stroke="#000000" cx="3505" cy="-462" rx="55.6256" ry="18"/>
<text text-anchor="middle" x="3505" y="-457.8" font-family="Times,serif" font-size="14.00" fill="#000000">1, h, r1, t, b</text>
</g>
<!-- 9 -->
<g id="node37" class="node">
<title>9</title>
<ellipse fill="none" stroke="#000000" cx="781" cy="-18" rx="28.9754" ry="18"/>
<text text-anchor="middle" x="781" y="-13.8" font-family="Times,serif" font-size="14.00" fill="#000000">1, r2</text>
</g>
<!-- 9&#45;&gt;9 -->
<g id="edge17" class="edge">
<title>9-&gt;9</title>
<path fill="none" stroke="#00ff00" d="M806.9533,-26.1513C818.1501,-26.8187 827.7367,-24.1016 827.7367,-18 827.7367,-13.9005 823.4092,-11.3288 817.1733,-10.2849"/>
<polygon fill="#00ff00" stroke="#00ff00" points="817.0935,-6.7784 806.9533,-9.8487 816.7949,-13.7721 817.0935,-6.7784"/>
<text text-anchor="middle" x="864.4685" y="-13.8" font-family="Times,serif" font-size="14.00" fill="#000000">-r1, -b, r2 (0)</text>
</g>
<!-- 3 -->
<g id="node61" class="node">
<title>3</title>
<ellipse fill="none" stroke="#000000" cx="781" cy="-106.8" rx="27" ry="18"/>
<text text-anchor="middle" x="781" y="-102.6" font-family="Times,serif" font-size="14.00" fill="#000000">1, h</text>
</g>
<!-- 9&#45;&gt;3 -->
<g id="edge14" class="edge">
<title>9-&gt;3</title>
<path fill="none" stroke="#00ff00" d="M795.5551,-33.6401C800.1418,-39.5666 804.628,-46.6644 807,-54 809.2973,-61.1045 809.2973,-63.6955 807,-70.8 805.6391,-75.0088 803.5822,-79.1393 801.2096,-83.0153"/>
<polygon fill="#00ff00" stroke="#00ff00" points="798.1316,-81.3103 795.2798,-91.5141 803.8723,-85.3157 798.1316,-81.3103"/>
<text text-anchor="middle" x="848.0621" y="-58.2" font-family="Times,serif" font-size="14.00" fill="#000000">-r1, -b, -r2 (0)</text>
</g>
<!-- 41 -->
<g id="node38" class="node">
<title>41</title>
<ellipse fill="none" stroke="#000000" cx="3617" cy="-462" rx="38.2876" ry="18"/>
<text text-anchor="middle" x="3617" y="-457.8" font-family="Times,serif" font-size="14.00" fill="#000000">1, r2, b</text>
</g>
<!-- 25 -->
<g id="node39" class="node">
<title>25</title>
<ellipse fill="none" stroke="#000000" cx="3710" cy="-462" rx="36.4994" ry="18"/>
<text text-anchor="middle" x="3710" y="-457.8" font-family="Times,serif" font-size="14.00" fill="#000000">1, r2, t</text>
</g>
<!-- 57 -->
<g id="node40" class="node">
<title>57</title>
<ellipse fill="none" stroke="#000000" cx="3810" cy="-462" rx="45.8118" ry="18"/>
<text text-anchor="middle" x="3810" y="-457.8" font-family="Times,serif" font-size="14.00" fill="#000000">1, r2, t, b</text>
</g>
<!-- 45 -->
<g id="node41" class="node">
<title>45</title>
<ellipse fill="none" stroke="#000000" cx="3925" cy="-462" rx="51.0319" ry="18"/>
<text text-anchor="middle" x="3925" y="-457.8" font-family="Times,serif" font-size="14.00" fill="#000000">1, r1, r2, b</text>
</g>
<!-- 61 -->
<g id="node42" class="node">
<title>61</title>
<ellipse fill="none" stroke="#000000" cx="4053" cy="-462" rx="58.5559" ry="18"/>
<text text-anchor="middle" x="4053" y="-457.8" font-family="Times,serif" font-size="14.00" fill="#000000">1, r1, r2, t, b</text>
</g>
<!-- 35 -->
<g id="node43" class="node">
<title>35</title>
<ellipse fill="none" stroke="#000000" cx="4165" cy="-462" rx="35.3587" ry="18"/>
<text text-anchor="middle" x="4165" y="-457.8" font-family="Times,serif" font-size="14.00" fill="#000000">1, h, b</text>
</g>
<!-- 51 -->
<g id="node44" class="node">
<title>51</title>
<ellipse fill="none" stroke="#000000" cx="4261" cy="-462" rx="42.8829" ry="18"/>
<text text-anchor="middle" x="4261" y="-457.8" font-family="Times,serif" font-size="14.00" fill="#000000">1, h, t, b</text>
</g>
<!-- 11 -->
<g id="node45" class="node">
<title>11</title>
<ellipse fill="none" stroke="#000000" cx="4360" cy="-462" rx="38.2876" ry="18"/>
<text text-anchor="middle" x="4360" y="-457.8" font-family="Times,serif" font-size="14.00" fill="#000000">1, h, r2</text>
</g>
<!-- 43 -->
<g id="node46" class="node">
<title>43</title>
<ellipse fill="none" stroke="#000000" cx="4464" cy="-462" rx="48.1013" ry="18"/>
<text text-anchor="middle" x="4464" y="-457.8" font-family="Times,serif" font-size="14.00" fill="#000000">1, h, r2, b</text>
</g>
<!-- 27 -->
<g id="node47" class="node">
<title>27</title>
<ellipse fill="none" stroke="#000000" cx="4576" cy="-462" rx="45.8118" ry="18"/>
<text text-anchor="middle" x="4576" y="-457.8" font-family="Times,serif" font-size="14.00" fill="#000000">1, h, r2, t</text>
</g>
<!-- 59 -->
<g id="node48" class="node">
<title>59</title>
<ellipse fill="none" stroke="#000000" cx="4695" cy="-462" rx="55.6256" ry="18"/>
<text text-anchor="middle" x="4695" y="-457.8" font-family="Times,serif" font-size="14.00" fill="#000000">1, h, r2, t, b</text>
</g>
<!-- 13 -->
<g id="node49" class="node">
<title>13</title>
<ellipse fill="none" stroke="#000000" cx="4810" cy="-462" rx="41.7172" ry="18"/>
<text text-anchor="middle" x="4810" y="-457.8" font-family="Times,serif" font-size="14.00" fill="#000000">1, r1, r2</text>
</g>
<!-- 29 -->
<g id="node50" class="node">
<title>29</title>
<ellipse fill="none" stroke="#000000" cx="4919" cy="-462" rx="49.2415" ry="18"/>
<text text-anchor="middle" x="4919" y="-457.8" font-family="Times,serif" font-size="14.00" fill="#000000">1, r1, r2, t</text>
</g>
<!-- 15 -->
<g id="node51" class="node">
<title>15</title>
<ellipse fill="none" stroke="#000000" cx="5037" cy="-462" rx="51.0319" ry="18"/>
<text text-anchor="middle" x="5037" y="-457.8" font-family="Times,serif" font-size="14.00" fill="#000000">1, h, r1, r2</text>
</g>
<!-- 47 -->
<g id="node52" class="node">
<title>47</title>
<ellipse fill="none" stroke="#000000" cx="5167" cy="-462" rx="60.8448" ry="18"/>
<text text-anchor="middle" x="5167" y="-457.8" font-family="Times,serif" font-size="14.00" fill="#000000">1, h, r1, r2, b</text>
</g>
<!-- 31 -->
<g id="node53" class="node">
<title>31</title>
<ellipse fill="none" stroke="#000000" cx="5305" cy="-462" rx="58.5559" ry="18"/>
<text text-anchor="middle" x="5305" y="-457.8" font-family="Times,serif" font-size="14.00" fill="#000000">1, h, r1, r2, t</text>
</g>
<!-- 63 -->
<g id="node54" class="node">
<title>63</title>
<ellipse fill="none" stroke="#000000" cx="5450" cy="-462" rx="68.369" ry="18"/>
<text text-anchor="middle" x="5450" y="-457.8" font-family="Times,serif" font-size="14.00" fill="#000000">1, h, r1, r2, t, b</text>
</g>
<!-- 1 -->
<g id="node55" class="node">
<title>1</title>
<ellipse fill="none" stroke="#000000" cx="5563" cy="-462" rx="27" ry="18"/>
<text text-anchor="middle" x="5563" y="-457.8" font-family="Times,serif" font-size="14.00" fill="#000000">1</text>
</g>
<!-- 17 -->
<g id="node56" class="node">
<title>17</title>
<ellipse fill="none" stroke="#000000" cx="5635" cy="-462" rx="27" ry="18"/>
<text text-anchor="middle" x="5635" y="-457.8" font-family="Times,serif" font-size="14.00" fill="#000000">1, t</text>
</g>
<!-- 33 -->
<g id="node57" class="node">
<title>33</title>
<ellipse fill="none" stroke="#000000" cx="5707" cy="-462" rx="27" ry="18"/>
<text text-anchor="middle" x="5707" y="-457.8" font-family="Times,serif" font-size="14.00" fill="#000000">1, b</text>
</g>
<!-- 49 -->
<g id="node58" class="node">
<title>49</title>
<ellipse fill="none" stroke="#000000" cx="5785" cy="-462" rx="33.0682" ry="18"/>
<text text-anchor="middle" x="5785" y="-457.8" font-family="Times,serif" font-size="14.00" fill="#000000">1, t, b</text>
</g>
<!-- 19 -->
<g id="node59" class="node">
<title>19</title>
<ellipse fill="none" stroke="#000000" cx="5869" cy="-462" rx="33.0682" ry="18"/>
<text text-anchor="middle" x="5869" y="-457.8" font-family="Times,serif" font-size="14.00" fill="#000000">1, h, t</text>
</g>
<!-- 21 -->
<g id="node60" class="node">
<title>21</title>
<ellipse fill="none" stroke="#000000" cx="599" cy="-106.8" rx="36.4994" ry="18"/>
<text text-anchor="middle" x="599" y="-102.6" font-family="Times,serif" font-size="14.00" fill="#000000">1, r1, t</text>
</g>
<!-- 21&#45;&gt;21 -->
<g id="edge23" class="edge">
<title>21-&gt;21</title>
<path fill="none" stroke="#00ff00" d="M631.302,-115.0319C643.3399,-115.3018 653.2489,-112.5578 653.2489,-106.8 653.2489,-102.8415 648.5653,-100.3075 641.7264,-99.1981"/>
<polygon fill="#00ff00" stroke="#00ff00" points="641.495,-95.6778 631.302,-98.5681 641.0727,-102.665 641.495,-95.6778"/>
<text text-anchor="middle" x="689.9807" y="-102.6" font-family="Times,serif" font-size="14.00" fill="#000000">r1, -b, -r2 (0)</text>
</g>
<!-- 21&#45;&gt;5 -->
<g id="edge22" class="edge">
<title>21-&gt;5</title>
<path fill="none" stroke="#00ff00" d="M612.9729,-123.5481C622.1455,-134.2262 634.6108,-148.1563 646.5364,-159.6 651.98,-164.8236 658.0811,-170.1618 663.9516,-175.0731"/>
<polygon fill="#00ff00" stroke="#00ff00" points="661.7794,-177.8181 671.7306,-181.4547 666.2192,-172.4062 661.7794,-177.8181"/>
<text text-anchor="middle" x="683.7318" y="-147" font-family="Times,serif" font-size="14.00" fill="#000000">r1, -b, -r2 (0)</text>
</g>
<!-- 3&#45;&gt;9 -->
<g id="edge18" class="edge">
<title>3-&gt;9</title>
<path fill="none" stroke="#00ff00" d="M758.2442,-97.087C747.4616,-91.1838 735.6312,-82.5014 729.5364,-70.8 722.0723,-56.4696 734.4807,-43.4343 748.9792,-33.9009"/>
<polygon fill="#00ff00" stroke="#00ff00" points="750.8524,-36.8587 757.6227,-28.7092 747.2481,-30.8579 750.8524,-36.8587"/>
<text text-anchor="middle" x="766.7318" y="-58.2" font-family="Times,serif" font-size="14.00" fill="#000000">-r1, -b, r2 (0)</text>
</g>
<!-- 3&#45;&gt;3 -->
<g id="edge16" class="edge">
<title>3-&gt;3</title>
<path fill="none" stroke="#00ff00" d="M805.5325,-114.9211C816.5078,-115.6945 826,-112.9875 826,-106.8 826,-102.6428 821.7151,-100.0567 815.5743,-99.0417"/>
<polygon fill="#00ff00" stroke="#00ff00" points="815.6524,-95.5424 805.5325,-98.6789 815.3995,-102.5378 815.6524,-95.5424"/>
<text text-anchor="middle" x="865.0621" y="-102.6" font-family="Times,serif" font-size="14.00" fill="#000000">-r1, -b, -r2 (0)</text>
</g>
<!-- 3&#45;&gt;5 -->
<g id="edge24" class="edge">
<title>3-&gt;5</title>
<path fill="none" stroke="#00ff00" d="M799.8345,-119.8501C813.1378,-130.6899 826.9686,-146.4129 817,-159.6 806.2292,-173.8483 761.4905,-184.0921 728.1422,-189.9256"/>
<polygon fill="#00ff00" stroke="#00ff00" points="727.4908,-186.4859 718.2086,-191.5939 728.6503,-193.3892 727.4908,-186.4859"/>
<text text-anchor="middle" x="857.7318" y="-147" font-family="Times,serif" font-size="14.00" fill="#000000">r1, -b, -r2 (0)</text>
</g>
<!-- 7 -->
<g id="node62" class="node">
<title>7</title>
<ellipse fill="none" stroke="#000000" cx="5958" cy="-462" rx="38.2876" ry="18"/>
<text text-anchor="middle" x="5958" y="-457.8" font-family="Times,serif" font-size="14.00" fill="#000000">1, h, r1</text>
</g>
<!-- 23 -->
<g id="node63" class="node">
<title>23</title>
<ellipse fill="none" stroke="#000000" cx="6060" cy="-462" rx="45.8118" ry="18"/>
<text text-anchor="middle" x="6060" y="-457.8" font-family="Times,serif" font-size="14.00" fill="#000000">1, h, r1, t</text>
</g>
<!-- 5&#45;&gt;37 -->
<g id="edge25" class="edge">
<title>5-&gt;37</title>
<path fill="none" stroke="#00ff00" d="M714.4072,-205.3384C725.5601,-211.1683 737.6733,-219.7784 744,-231.6 749.7188,-242.2856 743.9657,-253.2907 735.3536,-262.4696"/>
<polygon fill="#00ff00" stroke="#00ff00" points="732.8774,-259.9939 727.9985,-269.3985 737.6773,-265.0891 732.8774,-259.9939"/>
<text text-anchor="middle" x="781.4015" y="-235.8" font-family="Times,serif" font-size="14.00" fill="#000000">r1, b, -r2 (0)</text>
</g>
<!-- 5&#45;&gt;21 -->
<g id="edge20" class="edge">
<title>5-&gt;21</title>
<path fill="none" stroke="#00ff00" d="M665.3555,-186.2834C656.7772,-183.251 647.0384,-180.041 638,-177.6 598.0028,-166.7978 572.852,-191.5992 546.5364,-159.6 536.2866,-147.1365 548.5197,-134.2688 563.7405,-124.357"/>
<polygon fill="#00ff00" stroke="#00ff00" points="565.6041,-127.3205 572.3801,-119.1758 562.0039,-121.3173 565.6041,-127.3205"/>
<text text-anchor="middle" x="583.7318" y="-147" font-family="Times,serif" font-size="14.00" fill="#000000">r1, -b, -r2 (0)</text>
</g>
<!-- 5&#45;&gt;3 -->
<g id="edge15" class="edge">
<title>5-&gt;3</title>
<path fill="none" stroke="#00ff00" d="M704.0761,-179.4315C713.5991,-168.7376 726.6277,-154.5718 738.8758,-142.8 744.3118,-137.5754 750.3676,-132.1755 756.1542,-127.1975"/>
<polygon fill="#00ff00" stroke="#00ff00" points="758.4255,-129.8604 763.7946,-120.7268 753.9016,-124.5187 758.4255,-129.8604"/>
<text text-anchor="middle" x="778.0621" y="-147" font-family="Times,serif" font-size="14.00" fill="#000000">-r1, -b, -r2 (0)</text>
</g>
<!-- 5&#45;&gt;5 -->
<g id="edge19" class="edge">
<title>5-&gt;5</title>
<path fill="none" stroke="#00ff00" d="M715.9533,-203.7513C727.1501,-204.4187 736.7367,-201.7016 736.7367,-195.6 736.7367,-191.5005 732.4092,-188.9288 726.1733,-187.8849"/>
<polygon fill="#00ff00" stroke="#00ff00" points="726.0935,-184.3784 715.9533,-187.4487 725.7949,-191.3721 726.0935,-184.3784"/>
<text text-anchor="middle" x="773.4685" y="-191.4" font-family="Times,serif" font-size="14.00" fill="#000000">r1, -b, -r2 (0)</text>
</g>
</g>
</svg>