<?xml version="1.0" encoding="UTF-8" standalone="no"?><!DOCTYPE svg PUBLIC "-//W3C//DTD SVG 1.1//EN" "http://www.w3.org/Graphics/SVG/1.1/DTD/svg11.dtd"><!-- Generated by graphviz version 2.40.1 (20161225.0304)
 --><!-- Title: G Pages: 1 --><svg xmlns="http://www.w3.org/2000/svg" xmlns:xlink="http://www.w3.org/1999/xlink" width="1591pt" height="222pt" viewBox="0.00 0.00 1591.46 221.60">
<g id="graph0" class="graph" transform="scale(1 1) rotate(0) translate(4 217.6)">
<title>G</title>
<polygon fill="#ffffff" stroke="transparent" points="-4,4 -4,-217.6 1587.4636,-217.6 1587.4636,4 -4,4"/>
<!-- 0 -->
<g id="node1" class="node">
<title>0</title>
<ellipse fill="none" stroke="#000000" cx="27" cy="-195.6" rx="27" ry="18"/>
<text text-anchor="middle" x="27" y="-191.4" font-family="Times,serif" font-size="14.00" fill="#000000">0</text>
</g>
<!-- 16 -->
<g id="node2" class="node">
<title>16</title>
<ellipse fill="none" stroke="#000000" cx="27" cy="-106.8" rx="27" ry="18"/>
<text text-anchor="middle" x="27" y="-102.6" font-family="Times,serif" font-size="14.00" fill="#000000">0, b</text>
</g>
<!-- 0&#45;&gt;16 -->
<g id="edge1" class="edge">
<title>0-&gt;16</title>
<path fill="none" stroke="#0000ff" d="M27,-177.2006C27,-165.0949 27,-149.0076 27,-135.2674"/>
<polygon fill="#0000ff" stroke="#0000ff" points="30.5001,-134.872 27,-124.872 23.5001,-134.8721 30.5001,-134.872"/>
<text text-anchor="middle" x="63.7318" y="-147" font-family="Times,serif" font-size="14.00" fill="#000000">-r1, b, -r2 (0)</text>
</g>
<!-- 2 -->
<g id="node3" class="node">
<title>2</title>
<ellipse fill="none" stroke="#000000" cx="171" cy="-195.6" rx="27" ry="18"/>
<text text-anchor="middle" x="171" y="-191.4" font-family="Times,serif" font-size="14.00" fill="#000000">0, h</text>
</g>
<!-- 18 -->
<g id="node4" class="node">
<title>18</title>
<ellipse fill="none" stroke="#000000" cx="124" cy="-106.8" rx="35.3587" ry="18"/>
<text text-anchor="middle" x="124" y="-102.6" font-family="Times,serif" font-size="14.00" fill="#000000">0, h, b</text>
</g>
<!-- 2&#45;&gt;18 -->
<g id="edge2" class="edge">
<title>2-&gt;18</title>
<path fill="none" stroke="#0000ff" d="M148.7285,-184.7167C139.1183,-178.7439 128.8727,-170.345 123.5364,-159.6 119.8094,-152.0953 118.8029,-143.2184 119.0495,-134.9059"/>
<polygon fill="#0000ff" stroke="#0000ff" points="122.5466,-135.0889 119.9214,-124.8245 115.5727,-134.4857 122.5466,-135.0889"/>
<text text-anchor="middle" x="160.7318" y="-147" font-family="Times,serif" font-size="14.00" fill="#000000">-r1, b, -r2 (0)</text>
</g>
<!-- 4 -->
<g id="node10" class="node">
<title>4</title>
<ellipse fill="none" stroke="#000000" cx="221" cy="-106.8" rx="28.9754" ry="18"/>
<text text-anchor="middle" x="221" y="-102.6" font-family="Times,serif" font-size="14.00" fill="#000000">0, r1</text>
</g>
<!-- 2&#45;&gt;4 -->
<g id="edge6" class="edge">
<title>2-&gt;4</title>
<path fill="none" stroke="#00ff00" d="M183.6197,-179.5739C188.1218,-173.497 193.0514,-166.4005 197,-159.6 201.7242,-151.4637 206.1971,-142.2328 209.9727,-133.7903"/>
<polygon fill="#00ff00" stroke="#00ff00" points="213.2967,-134.9219 214.058,-124.3544 206.8729,-132.1407 213.2967,-134.9219"/>
<text text-anchor="middle" x="242.7318" y="-147" font-family="Times,serif" font-size="14.00" fill="#000000">r1, -b, -r2 (0)</text>
</g>
<!-- 21 -->
<g id="node14" class="node">
<title>21</title>
<ellipse fill="none" stroke="#000000" cx="269" cy="-18" rx="38.2876" ry="18"/>
<text text-anchor="middle" x="269" y="-13.8" font-family="Times,serif" font-size="14.00" fill="#000000">1, r1, b</text>
</g>
<!-- 18&#45;&gt;21 -->
<g id="edge10" class="edge">
<title>18-&gt;21</title>
<path fill="none" stroke="#0000ff" d="M126.3042,-88.8346C128.6831,-77.382 133.4947,-63.0458 143.197,-54 154.9158,-43.0741 191.9138,-33.259 222.7758,-26.6477"/>
<polygon fill="#0000ff" stroke="#0000ff" points="223.8826,-29.9926 232.9615,-24.5314 222.4585,-23.1389 223.8826,-29.9926"/>
<text text-anchor="middle" x="178.4015" y="-58.2" font-family="Times,serif" font-size="14.00" fill="#000000">r1, b, -r2 (0)</text>
</g>
<!-- 8 -->
<g id="node5" class="node">
<title>8</title>
<ellipse fill="none" stroke="#000000" cx="507" cy="-195.6" rx="28.9754" ry="18"/>
<text text-anchor="middle" x="507" y="-191.4" font-family="Times,serif" font-size="14.00" fill="#000000">0, r2</text>
</g>
<!-- 24 -->
<g id="node6" class="node">
<title>24</title>
<ellipse fill="none" stroke="#000000" cx="550" cy="-106.8" rx="38.2876" ry="18"/>
<text text-anchor="middle" x="550" y="-102.6" font-family="Times,serif" font-size="14.00" fill="#000000">0, r2, b</text>
</g>
<!-- 8&#45;&gt;24 -->
<g id="edge3" class="edge">
<title>8-&gt;24</title>
<path fill="none" stroke="#0000ff" d="M503.8849,-177.6516C502.8772,-167.0253 503.1064,-153.578 508.197,-142.8 510.765,-137.3629 514.5876,-132.4275 518.895,-128.0747"/>
<polygon fill="#0000ff" stroke="#0000ff" points="521.3385,-130.585 526.4658,-121.3135 516.6758,-125.364 521.3385,-130.585"/>
<text text-anchor="middle" x="543.4015" y="-147" font-family="Times,serif" font-size="14.00" fill="#000000">-r1, b, r2 (0)</text>
</g>
<!-- 10 -->
<g id="node7" class="node">
<title>10</title>
<ellipse fill="none" stroke="#000000" cx="737" cy="-195.6" rx="38.2876" ry="18"/>
<text text-anchor="middle" x="737" y="-191.4" font-family="Times,serif" font-size="14.00" fill="#000000">0, h, r2</text>
</g>
<!-- 26 -->
<g id="node8" class="node">
<title>26</title>
<ellipse fill="none" stroke="#000000" cx="843" cy="-106.8" rx="48.1013" ry="18"/>
<text text-anchor="middle" x="843" y="-102.6" font-family="Times,serif" font-size="14.00" fill="#000000">0, h, r2, b</text>
</g>
<!-- 10&#45;&gt;26 -->
<g id="edge4" class="edge">
<title>10-&gt;26</title>
<path fill="none" stroke="#0000ff" d="M751.8167,-178.4843C761.603,-167.6596 775.0123,-153.7042 788.197,-142.8 794.4883,-137.5968 801.5558,-132.4836 808.4708,-127.8182"/>
<polygon fill="#0000ff" stroke="#0000ff" points="810.6342,-130.585 817.0783,-122.1752 806.7963,-124.7309 810.6342,-130.585"/>
<text text-anchor="middle" x="823.4015" y="-147" font-family="Times,serif" font-size="14.00" fill="#000000">-r1, b, r2 (0)</text>
</g>
<!-- 12 -->
<g id="node9" class="node">
<title>12</title>
<ellipse fill="none" stroke="#000000" cx="706" cy="-106.8" rx="41.7172" ry="18"/>
<text text-anchor="middle" x="706" y="-102.6" font-family="Times,serif" font-size="14.00" fill="#000000">0, r1, r2</text>
</g>
<!-- 10&#45;&gt;12 -->
<g id="edge5" class="edge">
<title>10-&gt;12</title>
<path fill="none" stroke="#0000ff" d="M712.1698,-181.8119C704.2896,-176.0595 696.5098,-168.598 692.197,-159.6 688.3706,-151.6167 689.1761,-142.4272 691.7422,-133.9754"/>
<polygon fill="#0000ff" stroke="#0000ff" points="695.0601,-135.0989 695.3912,-124.5092 688.5286,-132.5811 695.0601,-135.0989"/>
<text text-anchor="middle" x="727.4015" y="-147" font-family="Times,serif" font-size="14.00" fill="#000000">r1, -b, r2 (0)</text>
</g>
<!-- 28 -->
<g id="node11" class="node">
<title>28</title>
<ellipse fill="none" stroke="#000000" cx="897" cy="-18" rx="51.0319" ry="18"/>
<text text-anchor="middle" x="897" y="-13.8" font-family="Times,serif" font-size="14.00" fill="#000000">0, r1, r2, b</text>
</g>
<!-- 26&#45;&gt;28 -->
<g id="edge8" class="edge">
<title>26-&gt;28</title>
<path fill="none" stroke="#0000ff" d="M846.4406,-88.7451C849.0215,-78.0811 853.2656,-64.6315 859.8576,-54 862.4426,-49.831 865.6155,-45.802 869.0078,-42.0431"/>
<polygon fill="#0000ff" stroke="#0000ff" points="871.6584,-44.3391 876.1609,-34.7486 866.6604,-39.438 871.6584,-44.3391"/>
<text text-anchor="middle" x="892.0712" y="-58.2" font-family="Times,serif" font-size="14.00" fill="#000000">r1, b, r2 (1)</text>
</g>
<!-- 12&#45;&gt;28 -->
<g id="edge7" class="edge">
<title>12-&gt;28</title>
<path fill="none" stroke="#0000ff" d="M726.1309,-91.0135C741.5257,-79.5281 763.6457,-64.2548 784.8576,-54 803.9921,-44.7495 826.0753,-37.0762 845.5583,-31.2242"/>
<polygon fill="#0000ff" stroke="#0000ff" points="846.5648,-34.5766 855.1839,-28.4153 844.6038,-27.8568 846.5648,-34.5766"/>
<text text-anchor="middle" x="817.0712" y="-58.2" font-family="Times,serif" font-size="14.00" fill="#000000">r1, b, r2 (1)</text>
</g>
<!-- 4&#45;&gt;21 -->
<g id="edge12" class="edge">
<title>4-&gt;21</title>
<path fill="none" stroke="#00ff00" d="M216.7037,-88.7502C215.1158,-78.0881 214.8248,-64.6386 220.197,-54 223.4175,-47.6224 228.3598,-42.0964 233.8848,-37.4186"/>
<polygon fill="#00ff00" stroke="#00ff00" points="236.3388,-39.9547 242.2638,-31.1715 232.1547,-34.3428 236.3388,-39.9547"/>
<text text-anchor="middle" x="255.4015" y="-58.2" font-family="Times,serif" font-size="14.00" fill="#000000">r1, b, -r2 (0)</text>
</g>
<!-- 14 -->
<g id="node12" class="node">
<title>14</title>
<ellipse fill="none" stroke="#000000" cx="1085" cy="-195.6" rx="51.0319" ry="18"/>
<text text-anchor="middle" x="1085" y="-191.4" font-family="Times,serif" font-size="14.00" fill="#000000">0, h, r1, r2</text>
</g>
<!-- 30 -->
<g id="node13" class="node">
<title>30</title>
<ellipse fill="none" stroke="#000000" cx="1201" cy="-106.8" rx="60.8448" ry="18"/>
<text text-anchor="middle" x="1201" y="-102.6" font-family="Times,serif" font-size="14.00" fill="#000000">0, h, r1, r2, b</text>
</g>
<!-- 14&#45;&gt;30 -->
<g id="edge9" class="edge">
<title>14-&gt;30</title>
<path fill="none" stroke="#0000ff" d="M1099.4234,-178.1287C1109.0271,-167.1621 1122.3272,-153.1823 1135.8576,-142.8 1143.2354,-137.1388 1151.6133,-131.8155 1159.846,-127.0875"/>
<polygon fill="#0000ff" stroke="#0000ff" points="1161.615,-130.1088 1168.6682,-122.2029 1158.2243,-123.9848 1161.615,-130.1088"/>
<text text-anchor="middle" x="1168.0712" y="-147" font-family="Times,serif" font-size="14.00" fill="#000000">r1, b, r2 (1)</text>
</g>
<!-- 6 -->
<g id="node15" class="node">
<title>6</title>
<ellipse fill="none" stroke="#000000" cx="1323" cy="-195.6" rx="38.2876" ry="18"/>
<text text-anchor="middle" x="1323" y="-191.4" font-family="Times,serif" font-size="14.00" fill="#000000">0, h, r1</text>
</g>
<!-- 23 -->
<g id="node16" class="node">
<title>23</title>
<ellipse fill="none" stroke="#000000" cx="1372" cy="-106.8" rx="48.1013" ry="18"/>
<text text-anchor="middle" x="1372" y="-102.6" font-family="Times,serif" font-size="14.00" fill="#000000">1, h, r1, b</text>
</g>
<!-- 6&#45;&gt;23 -->
<g id="edge11" class="edge">
<title>6-&gt;23</title>
<path fill="none" stroke="#0000ff" d="M1319.178,-177.5421C1317.839,-166.877 1317.8055,-153.4274 1323.197,-142.8 1325.2434,-138.7662 1331.4137,-133.3848 1338.7092,-128.0148"/>
<polygon fill="#0000ff" stroke="#0000ff" points="1340.745,-130.8621 1346.9253,-122.2565 1336.7275,-125.1297 1340.745,-130.8621"/>
<text text-anchor="middle" x="1357.4015" y="-147" font-family="Times,serif" font-size="14.00" fill="#000000">r1, b, -r2 (0)</text>
</g>
<!-- 9 -->
<g id="node17" class="node">
<title>9</title>
<ellipse fill="none" stroke="#000000" cx="599" cy="-195.6" rx="28.9754" ry="18"/>
<text text-anchor="middle" x="599" y="-191.4" font-family="Times,serif" font-size="14.00" fill="#000000">1, r2</text>
</g>
<!-- 9&#45;&gt;24 -->
<g id="edge13" class="edge">
<title>9-&gt;24</title>
<path fill="none" stroke="#0000ff" d="M592.9126,-177.9646C588.9782,-167.4494 583.405,-154.0088 577,-142.8 574.9651,-139.2388 572.6292,-135.6243 570.2015,-132.128"/>
<polygon fill="#0000ff" stroke="#0000ff" points="572.8241,-129.7849 564.0964,-123.7783 567.1735,-133.9165 572.8241,-129.7849"/>
<text text-anchor="middle" x="619.4015" y="-147" font-family="Times,serif" font-size="14.00" fill="#000000">-r1, b, r2 (1)</text>
</g>
<!-- 11 -->
<g id="node18" class="node">
<title>11</title>
<ellipse fill="none" stroke="#000000" cx="941" cy="-195.6" rx="38.2876" ry="18"/>
<text text-anchor="middle" x="941" y="-191.4" font-family="Times,serif" font-size="14.00" fill="#000000">1, h, r2</text>
</g>
<!-- 11&#45;&gt;26 -->
<g id="edge14" class="edge">
<title>11-&gt;26</title>
<path fill="none" stroke="#0000ff" d="M910.9502,-184.103C898.2343,-178.177 883.9165,-169.9879 873.197,-159.6 865.6551,-152.2914 859.4157,-142.6926 854.605,-133.6862"/>
<polygon fill="#0000ff" stroke="#0000ff" points="857.6943,-132.0379 850.1142,-124.6357 851.4238,-135.1493 857.6943,-132.0379"/>
<text text-anchor="middle" x="908.4015" y="-147" font-family="Times,serif" font-size="14.00" fill="#000000">-r1, b, r2 (1)</text>
</g>
<!-- 13 -->
<g id="node19" class="node">
<title>13</title>
<ellipse fill="none" stroke="#000000" cx="951" cy="-106.8" rx="41.7172" ry="18"/>
<text text-anchor="middle" x="951" y="-102.6" font-family="Times,serif" font-size="14.00" fill="#000000">1, r1, r2</text>
</g>
<!-- 11&#45;&gt;13 -->
<g id="edge20" class="edge">
<title>11-&gt;13</title>
<path fill="none" stroke="#0000ff" d="M943.072,-177.2006C944.4488,-164.975 946.2828,-148.6887 947.8401,-134.8599"/>
<polygon fill="#0000ff" stroke="#0000ff" points="951.3237,-135.2009 948.9649,-124.872 944.3677,-134.4175 951.3237,-135.2009"/>
<text text-anchor="middle" x="981.4015" y="-147" font-family="Times,serif" font-size="14.00" fill="#000000">r1, -b, r2 (0)</text>
</g>
<!-- 13&#45;&gt;28 -->
<g id="edge15" class="edge">
<title>13-&gt;28</title>
<path fill="none" stroke="#0000ff" d="M942.7342,-88.7841C937.729,-78.3788 930.979,-65.1788 924,-54 921.8732,-50.5933 919.5118,-47.1031 917.0958,-43.7004"/>
<polygon fill="#0000ff" stroke="#0000ff" points="919.8241,-41.5025 911.0803,-35.5194 914.1845,-45.6493 919.8241,-41.5025"/>
<text text-anchor="middle" x="965.0712" y="-58.2" font-family="Times,serif" font-size="14.00" fill="#000000">r1, b, r2 (1)</text>
</g>
<!-- 27 -->
<g id="node20" class="node">
<title>27</title>
<ellipse fill="none" stroke="#000000" cx="1059" cy="-106.8" rx="48.1013" ry="18"/>
<text text-anchor="middle" x="1059" y="-102.6" font-family="Times,serif" font-size="14.00" fill="#000000">1, h, r2, b</text>
</g>
<!-- 27&#45;&gt;28 -->
<g id="edge16" class="edge">
<title>27-&gt;28</title>
<path fill="none" stroke="#0000ff" d="M1043.69,-89.603C1032.7491,-78.1882 1017.1573,-63.5947 1001,-54 985.0696,-44.54 966.2859,-37.0814 949.0962,-31.4653"/>
<polygon fill="#0000ff" stroke="#0000ff" points="949.7817,-28.0127 939.1929,-28.3704 947.6936,-34.694 949.7817,-28.0127"/>
<text text-anchor="middle" x="1056.0712" y="-58.2" font-family="Times,serif" font-size="14.00" fill="#000000">r1, b, r2 (1)</text>
</g>
<!-- 15 -->
<g id="node21" class="node">
<title>15</title>
<ellipse fill="none" stroke="#000000" cx="1206" cy="-195.6" rx="51.0319" ry="18"/>
<text text-anchor="middle" x="1206" y="-191.4" font-family="Times,serif" font-size="14.00" fill="#000000">1, h, r1, r2</text>
</g>
<!-- 15&#45;&gt;30 -->
<g id="edge17" class="edge">
<title>15-&gt;30</title>
<path fill="none" stroke="#0000ff" d="M1204.964,-177.2006C1204.2756,-164.975 1203.3586,-148.6887 1202.58,-134.8599"/>
<polygon fill="#0000ff" stroke="#0000ff" points="1206.0743,-134.6594 1202.0176,-124.872 1199.0854,-135.053 1206.0743,-134.6594"/>
<text text-anchor="middle" x="1236.0712" y="-147" font-family="Times,serif" font-size="14.00" fill="#000000">r1, b, r2 (1)</text>
</g>
<!-- 1 -->
<g id="node22" class="node">
<title>1</title>
<ellipse fill="none" stroke="#000000" cx="1510" cy="-195.6" rx="27" ry="18"/>
<text text-anchor="middle" x="1510" y="-191.4" font-family="Times,serif" font-size="14.00" fill="#000000">1</text>
</g>
<!-- 17 -->
<g id="node23" class="node">
<title>17</title>
<ellipse fill="none" stroke="#000000" cx="1510" cy="-106.8" rx="27" ry="18"/>
<text text-anchor="middle" x="1510" y="-102.6" font-family="Times,serif" font-size="14.00" fill="#000000">1, b</text>
</g>
<!-- 1&#45;&gt;17 -->
<g id="edge18" class="edge">
<title>1-&gt;17</title>
<path fill="none" stroke="#0000ff" d="M1510,-177.2006C1510,-165.0949 1510,-149.0076 1510,-135.2674"/>
<polygon fill="#0000ff" stroke="#0000ff" points="1513.5001,-134.872 1510,-124.872 1506.5001,-134.8721 1513.5001,-134.872"/>
<text text-anchor="middle" x="1546.7318" y="-147" font-family="Times,serif" font-size="14.00" fill="#000000">-r1, b, -r2 (0)</text>
</g>
<!-- 3 -->
<g id="node24" class="node">
<title>3</title>
<ellipse fill="none" stroke="#000000" cx="363" cy="-195.6" rx="27" ry="18"/>
<text text-anchor="middle" x="363" y="-191.4" font-family="Times,serif" font-size="14.00" fill="#000000">1, h</text>
</g>
<!-- 19 -->
<g id="node25" class="node">
<title>19</title>
<ellipse fill="none" stroke="#000000" cx="315" cy="-106.8" rx="35.3587" ry="18"/>
<text text-anchor="middle" x="315" y="-102.6" font-family="Times,serif" font-size="14.00" fill="#000000">1, h, b</text>
</g>
<!-- 3&#45;&gt;19 -->
<g id="edge19" class="edge">
<title>3-&gt;19</title>
<path fill="none" stroke="#0000ff" d="M340.2442,-185.887C329.4616,-179.9838 317.6312,-171.3014 311.5364,-159.6 307.6574,-152.1527 306.99,-143.2922 307.7353,-134.9772"/>
<polygon fill="#0000ff" stroke="#0000ff" points="311.2267,-135.3019 309.2995,-124.8839 304.3093,-134.2299 311.2267,-135.3019"/>
<text text-anchor="middle" x="348.7318" y="-147" font-family="Times,serif" font-size="14.00" fill="#000000">-r1, b, -r2 (0)</text>
</g>
<!-- 5 -->
<g id="node27" class="node">
<title>5</title>
<ellipse fill="none" stroke="#000000" cx="410" cy="-106.8" rx="28.9754" ry="18"/>
<text text-anchor="middle" x="410" y="-102.6" font-family="Times,serif" font-size="14.00" fill="#000000">1, r1</text>
</g>
<!-- 3&#45;&gt;5 -->
<g id="edge23" class="edge">
<title>3-&gt;5</title>
<path fill="none" stroke="#00ff00" d="M375.7984,-179.6749C380.3198,-173.6088 385.216,-166.4935 389,-159.6 393.3198,-151.7304 397.222,-142.7839 400.4576,-134.5205"/>
<polygon fill="#00ff00" stroke="#00ff00" points="403.8316,-135.4905 404.0571,-124.898 397.2753,-133.0379 403.8316,-135.4905"/>
<text text-anchor="middle" x="433.7318" y="-147" font-family="Times,serif" font-size="14.00" fill="#000000">r1, -b, -r2 (0)</text>
</g>
<!-- 19&#45;&gt;21 -->
<g id="edge21" class="edge">
<title>19-&gt;21</title>
<path fill="none" stroke="#0000ff" d="M308.4984,-88.8053C304.4978,-78.4071 298.9978,-65.2071 293,-54 291.1924,-50.6224 289.1524,-47.1618 287.0445,-43.7853"/>
<polygon fill="#0000ff" stroke="#0000ff" points="289.813,-41.6231 281.4188,-35.1588 283.9497,-45.4469 289.813,-41.6231"/>
<text text-anchor="middle" x="335.4015" y="-58.2" font-family="Times,serif" font-size="14.00" fill="#000000">r1, b, -r2 (0)</text>
</g>
<!-- 7 -->
<g id="node26" class="node">
<title>7</title>
<ellipse fill="none" stroke="#000000" cx="1418" cy="-195.6" rx="38.2876" ry="18"/>
<text text-anchor="middle" x="1418" y="-191.4" font-family="Times,serif" font-size="14.00" fill="#000000">1, h, r1</text>
</g>
<!-- 7&#45;&gt;23 -->
<g id="edge22" class="edge">
<title>7-&gt;23</title>
<path fill="none" stroke="#0000ff" d="M1411.4984,-177.6053C1407.4978,-167.2071 1401.9978,-154.0071 1396,-142.8 1394.23,-139.4928 1392.2373,-136.1059 1390.1762,-132.7964"/>
<polygon fill="#0000ff" stroke="#0000ff" points="1393.0524,-130.7991 1384.6662,-124.3243 1387.1842,-134.6156 1393.0524,-130.7991"/>
<text text-anchor="middle" x="1437.4015" y="-147" font-family="Times,serif" font-size="14.00" fill="#000000">r1, b, -r2 (0)</text>
</g>
<!-- 5&#45;&gt;21 -->
<g id="edge24" class="edge">
<title>5-&gt;21</title>
<path fill="none" stroke="#00ff00" d="M401.866,-89.4037C395.686,-77.8999 386.1761,-63.282 374,-54 356.9036,-40.9671 334.7689,-32.4567 315.2333,-27.0022"/>
<polygon fill="#00ff00" stroke="#00ff00" points="315.8536,-23.5472 305.2948,-24.4206 314.0936,-30.3223 315.8536,-23.5472"/>
<text text-anchor="middle" x="424.4015" y="-58.2" font-family="Times,serif" font-size="14.00" fill="#000000">r1, b, -r2 (0)</text>
</g>
</g>
</svg>