<?xml version="1.0" encoding="UTF-8" standalone="no"?><!DOCTYPE svg PUBLIC "-//W3C//DTD SVG 1.1//EN" "http://www.w3.org/Graphics/SVG/1.1/DTD/svg11.dtd"><!-- Generated by graphviz version 2.40.1 (20161225.0304)
 --><!-- Title: G Pages: 1 --><svg xmlns="http://www.w3.org/2000/svg" xmlns:xlink="http://www.w3.org/1999/xlink" width="1772pt" height="399pt" viewBox="0.00 0.00 1772.07 399.20">
<g id="graph0" class="graph" transform="scale(1 1) rotate(0) translate(4 395.2)">
<title>G</title>
<polygon fill="#ffffff" stroke="transparent" points="-4,4 -4,-395.2 1768.0721,-395.2 1768.0721,4 -4,4"/>
<!-- 12 -->
<g id="node1" class="node">
<title>12</title>
<ellipse fill="none" stroke="#000000" cx="41.6085" cy="-373.2" rx="41.7172" ry="18"/>
<text text-anchor="middle" x="41.6085" y="-369" font-family="Times,serif" font-size="14.00" fill="#000000">0, r1, r2</text>
</g>
<!-- 10 -->
<g id="node2" class="node">
<title>10</title>
<ellipse fill="none" stroke="#000000" cx="109.6085" cy="-284.4" rx="38.2876" ry="18"/>
<text text-anchor="middle" x="109.6085" y="-280.2" font-family="Times,serif" font-size="14.00" fill="#000000">0, h, r2</text>
</g>
<!-- 12&#45;&gt;10 -->
<g id="edge1" class="edge">
<title>12-&gt;10</title>
<path fill="none" stroke="#0000ff" d="M37.3776,-354.8231C35.9211,-344.0449 35.9628,-330.5884 42.1449,-320.4 47.9975,-310.7545 57.3991,-303.5457 67.3484,-298.2187"/>
<polygon fill="#0000ff" stroke="#0000ff" points="69.0267,-301.2963 76.5534,-293.8397 66.0196,-294.9751 69.0267,-301.2963"/>
<text text-anchor="middle" x="79.3403" y="-324.6" font-family="Times,serif" font-size="14.00" fill="#000000">-r1, -b, r2 (0)</text>
</g>
<!-- 28 -->
<g id="node10" class="node">
<title>28</title>
<ellipse fill="none" stroke="#000000" cx="319.6085" cy="-106.8" rx="51.0319" ry="18"/>
<text text-anchor="middle" x="319.6085" y="-102.6" font-family="Times,serif" font-size="14.00" fill="#000000">0, r1, r2, b</text>
</g>
<!-- 12&#45;&gt;28 -->
<g id="edge11" class="edge">
<title>12-&gt;28</title>
<path fill="none" stroke="#0000ff" d="M36.7568,-355.0153C35.4652,-349.3513 34.2512,-343.0551 33.6085,-337.2 28.2731,-288.5959 33.2406,-269.2271 64.4661,-231.6 116.5602,-168.8259 207.871,-135.0674 265.9603,-119.0378"/>
<polygon fill="#0000ff" stroke="#0000ff" points="266.9398,-122.3989 275.6943,-116.4317 265.1293,-115.6371 266.9398,-122.3989"/>
<text text-anchor="middle" x="96.6797" y="-235.8" font-family="Times,serif" font-size="14.00" fill="#000000">r1, b, r2 (1)</text>
</g>
<!-- 10&#45;&gt;12 -->
<g id="edge8" class="edge">
<title>10-&gt;12</title>
<path fill="none" stroke="#0000ff" d="M117.0137,-302.2962C120.2699,-313.1606 122.067,-326.8758 115.6085,-337.2 109.097,-347.6088 98.6182,-355.0862 87.5694,-360.4272"/>
<polygon fill="#0000ff" stroke="#0000ff" points="86.0427,-357.2735 78.229,-364.4286 88.7993,-363.7079 86.0427,-357.2735"/>
<text text-anchor="middle" x="155.01" y="-324.6" font-family="Times,serif" font-size="14.00" fill="#000000">r1, -b, r2 (0)</text>
</g>
<!-- 26 -->
<g id="node11" class="node">
<title>26</title>
<ellipse fill="none" stroke="#000000" cx="227.6085" cy="-195.6" rx="48.1013" ry="18"/>
<text text-anchor="middle" x="227.6085" y="-191.4" font-family="Times,serif" font-size="14.00" fill="#000000">0, h, r2, b</text>
</g>
<!-- 10&#45;&gt;26 -->
<g id="edge7" class="edge">
<title>10-&gt;26</title>
<path fill="none" stroke="#0000ff" d="M119.4161,-266.9102C126.428,-255.6584 136.7361,-241.3673 148.8055,-231.6 158.5794,-223.6904 170.3727,-217.1078 181.8244,-211.8289"/>
<polygon fill="#0000ff" stroke="#0000ff" points="183.5387,-214.9001 191.3118,-207.7008 180.7457,-208.4814 183.5387,-214.9001"/>
<text text-anchor="middle" x="184.01" y="-235.8" font-family="Times,serif" font-size="14.00" fill="#000000">-r1, b, r2 (0)</text>
</g>
<!-- 0 -->
<g id="node3" class="node">
<title>0</title>
<ellipse fill="none" stroke="#000000" cx="498.6085" cy="-373.2" rx="27" ry="18"/>
<text text-anchor="middle" x="498.6085" y="-369" font-family="Times,serif" font-size="14.00" fill="#000000">0</text>
</g>
<!-- 16 -->
<g id="node4" class="node">
<title>16</title>
<ellipse fill="none" stroke="#000000" cx="498.6085" cy="-284.4" rx="27" ry="18"/>
<text text-anchor="middle" x="498.6085" y="-280.2" font-family="Times,serif" font-size="14.00" fill="#000000">0, b</text>
</g>
<!-- 0&#45;&gt;16 -->
<g id="edge2" class="edge">
<title>0-&gt;16</title>
<path fill="none" stroke="#0000ff" d="M498.6085,-354.8006C498.6085,-342.6949 498.6085,-326.6076 498.6085,-312.8674"/>
<polygon fill="#0000ff" stroke="#0000ff" points="502.1086,-312.472 498.6085,-302.472 495.1086,-312.4721 502.1086,-312.472"/>
<text text-anchor="middle" x="535.3403" y="-324.6" font-family="Times,serif" font-size="14.00" fill="#000000">-r1, b, -r2 (0)</text>
</g>
<!-- 20 -->
<g id="node5" class="node">
<title>20</title>
<ellipse fill="none" stroke="#000000" cx="894.6085" cy="-284.4" rx="38.2876" ry="18"/>
<text text-anchor="middle" x="894.6085" y="-280.2" font-family="Times,serif" font-size="14.00" fill="#000000">0, r1, b</text>
</g>
<!-- 18 -->
<g id="node6" class="node">
<title>18</title>
<ellipse fill="none" stroke="#000000" cx="894.6085" cy="-195.6" rx="35.3587" ry="18"/>
<text text-anchor="middle" x="894.6085" y="-191.4" font-family="Times,serif" font-size="14.00" fill="#000000">0, h, b</text>
</g>
<!-- 20&#45;&gt;18 -->
<g id="edge3" class="edge">
<title>20-&gt;18</title>
<path fill="none" stroke="#0000ff" d="M894.6085,-266.0006C894.6085,-253.8949 894.6085,-237.8076 894.6085,-224.0674"/>
<polygon fill="#0000ff" stroke="#0000ff" points="898.1086,-223.672 894.6085,-213.672 891.1086,-223.6721 898.1086,-223.672"/>
<text text-anchor="middle" x="931.3403" y="-235.8" font-family="Times,serif" font-size="14.00" fill="#000000">-r1, b, -r2 (0)</text>
</g>
<!-- 21 -->
<g id="node15" class="node">
<title>21</title>
<ellipse fill="none" stroke="#000000" cx="757.6085" cy="-106.8" rx="38.2876" ry="18"/>
<text text-anchor="middle" x="757.6085" y="-102.6" font-family="Times,serif" font-size="14.00" fill="#000000">1, r1, b</text>
</g>
<!-- 18&#45;&gt;21 -->
<g id="edge14" class="edge">
<title>18-&gt;21</title>
<path fill="none" stroke="#0000ff" d="M873.6006,-180.9856C858.0022,-170.231 836.1395,-155.3592 816.6085,-142.8 808.144,-137.357 798.8933,-131.6166 790.2801,-126.3578"/>
<polygon fill="#0000ff" stroke="#0000ff" points="791.9589,-123.2826 781.5945,-121.0846 788.3261,-129.2661 791.9589,-123.2826"/>
<text text-anchor="middle" x="875.01" y="-147" font-family="Times,serif" font-size="14.00" fill="#000000">r1, b, -r2 (0)</text>
</g>
<!-- 2 -->
<g id="node7" class="node">
<title>2</title>
<ellipse fill="none" stroke="#000000" cx="983.6085" cy="-284.4" rx="27" ry="18"/>
<text text-anchor="middle" x="983.6085" y="-280.2" font-family="Times,serif" font-size="14.00" fill="#000000">0, h</text>
</g>
<!-- 2&#45;&gt;18 -->
<g id="edge4" class="edge">
<title>2-&gt;18</title>
<path fill="none" stroke="#0000ff" d="M982.1849,-266.2741C980.4789,-255.1867 976.7482,-241.3148 968.6085,-231.6 959.8344,-221.1281 947.2901,-213.4564 935.0164,-207.9541"/>
<polygon fill="#0000ff" stroke="#0000ff" points="936.3308,-204.7103 925.7503,-204.1589 933.6776,-211.1881 936.3308,-204.7103"/>
<text text-anchor="middle" x="1014.3403" y="-235.8" font-family="Times,serif" font-size="14.00" fill="#000000">-r1, b, -r2 (0)</text>
</g>
<!-- 4 -->
<g id="node12" class="node">
<title>4</title>
<ellipse fill="none" stroke="#000000" cx="887.6085" cy="-373.2" rx="28.9754" ry="18"/>
<text text-anchor="middle" x="887.6085" y="-369" font-family="Times,serif" font-size="14.00" fill="#000000">0, r1</text>
</g>
<!-- 2&#45;&gt;4 -->
<g id="edge10" class="edge">
<title>2-&gt;4</title>
<path fill="none" stroke="#00ff00" d="M961.1088,-294.54C954.8469,-297.2257 948.0074,-300.0335 941.6085,-302.4 916.507,-311.6831 899.9903,-298.8319 884.1449,-320.4 878.9065,-327.5302 878.0999,-336.7688 879.132,-345.5201"/>
<polygon fill="#00ff00" stroke="#00ff00" points="875.7089,-346.2538 881.0327,-355.4139 882.5832,-344.9332 875.7089,-346.2538"/>
<text text-anchor="middle" x="921.3403" y="-324.6" font-family="Times,serif" font-size="14.00" fill="#000000">r1, -b, -r2 (0)</text>
</g>
<!-- 8 -->
<g id="node8" class="node">
<title>8</title>
<ellipse fill="none" stroke="#000000" cx="1084.6085" cy="-373.2" rx="28.9754" ry="18"/>
<text text-anchor="middle" x="1084.6085" y="-369" font-family="Times,serif" font-size="14.00" fill="#000000">0, r2</text>
</g>
<!-- 24 -->
<g id="node9" class="node">
<title>24</title>
<ellipse fill="none" stroke="#000000" cx="1130.6085" cy="-284.4" rx="38.2876" ry="18"/>
<text text-anchor="middle" x="1130.6085" y="-280.2" font-family="Times,serif" font-size="14.00" fill="#000000">0, r2, b</text>
</g>
<!-- 8&#45;&gt;24 -->
<g id="edge5" class="edge">
<title>8-&gt;24</title>
<path fill="none" stroke="#0000ff" d="M1081.3605,-355.1874C1080.3057,-344.5384 1080.532,-331.0897 1085.8055,-320.4 1088.7025,-314.5275 1093.0584,-309.3001 1097.9349,-304.773"/>
<polygon fill="#0000ff" stroke="#0000ff" points="1100.3817,-307.2927 1105.8915,-298.2432 1095.941,-301.8816 1100.3817,-307.2927"/>
<text text-anchor="middle" x="1121.01" y="-324.6" font-family="Times,serif" font-size="14.00" fill="#000000">-r1, b, r2 (0)</text>
</g>
<!-- 28&#45;&gt;26 -->
<g id="edge6" class="edge">
<title>28-&gt;26</title>
<path fill="none" stroke="#0000ff" d="M272.7179,-114.345C256.0801,-119.5026 238.9768,-128.185 228.8055,-142.8 223.8903,-149.8625 222.4178,-158.8423 222.5246,-167.3847"/>
<polygon fill="#0000ff" stroke="#0000ff" points="219.0411,-167.7337 223.3127,-177.4293 226.0196,-167.1861 219.0411,-167.7337"/>
<text text-anchor="middle" x="264.01" y="-147" font-family="Times,serif" font-size="14.00" fill="#000000">-r1, b, r2 (0)</text>
</g>
<!-- 26&#45;&gt;28 -->
<g id="edge12" class="edge">
<title>26-&gt;28</title>
<path fill="none" stroke="#0000ff" d="M262.8631,-183.312C275.1224,-177.6395 288.1552,-169.8437 297.6085,-159.6 304.1164,-152.5478 308.8459,-143.2965 312.2123,-134.511"/>
<polygon fill="#0000ff" stroke="#0000ff" points="315.5637,-135.5262 315.456,-124.9319 308.9335,-133.281 315.5637,-135.5262"/>
<text text-anchor="middle" x="340.6797" y="-147" font-family="Times,serif" font-size="14.00" fill="#000000">r1, b, r2 (1)</text>
</g>
<!-- 4&#45;&gt;2 -->
<g id="edge9" class="edge">
<title>4-&gt;2</title>
<path fill="none" stroke="#00ff00" d="M913.7647,-365.6976C929.3957,-360.0587 948.6656,-350.916 961.6085,-337.2 968.2439,-330.1681 973.0143,-320.8481 976.3785,-311.9974"/>
<polygon fill="#00ff00" stroke="#00ff00" points="979.7521,-312.9448 979.6038,-302.351 973.1134,-310.7251 979.7521,-312.9448"/>
<text text-anchor="middle" x="1012.6706" y="-324.6" font-family="Times,serif" font-size="14.00" fill="#000000">-r1, -b, -r2 (0)</text>
</g>
<!-- 4&#45;&gt;21 -->
<g id="edge16" class="edge">
<title>4-&gt;21</title>
<path fill="none" stroke="#00ff00" d="M877.5772,-356.2122C869.2791,-341.9813 857.3224,-321.0582 847.6085,-302.4 835.3253,-278.8068 831.5522,-273.1491 821.8055,-248.4 803.7778,-202.6241 812.5289,-185.7911 788.6085,-142.8 786.3828,-138.7999 783.6651,-134.8422 780.7734,-131.0965"/>
<polygon fill="#00ff00" stroke="#00ff00" points="783.3745,-128.7503 774.2884,-123.3011 777.9931,-133.2271 783.3745,-128.7503"/>
<text text-anchor="middle" x="857.01" y="-235.8" font-family="Times,serif" font-size="14.00" fill="#000000">r1, b, -r2 (0)</text>
</g>
<!-- 14 -->
<g id="node13" class="node">
<title>14</title>
<ellipse fill="none" stroke="#000000" cx="1274.6085" cy="-373.2" rx="51.0319" ry="18"/>
<text text-anchor="middle" x="1274.6085" y="-369" font-family="Times,serif" font-size="14.00" fill="#000000">0, h, r1, r2</text>
</g>
<!-- 30 -->
<g id="node14" class="node">
<title>30</title>
<ellipse fill="none" stroke="#000000" cx="1335.6085" cy="-284.4" rx="60.8448" ry="18"/>
<text text-anchor="middle" x="1335.6085" y="-280.2" font-family="Times,serif" font-size="14.00" fill="#000000">0, h, r1, r2, b</text>
</g>
<!-- 14&#45;&gt;30 -->
<g id="edge13" class="edge">
<title>14-&gt;30</title>
<path fill="none" stroke="#0000ff" d="M1278.1601,-354.9602C1280.8611,-344.2307 1285.355,-330.7771 1292.4661,-320.4 1295.5679,-315.8735 1299.3895,-311.5982 1303.4649,-307.6821"/>
<polygon fill="#0000ff" stroke="#0000ff" points="1305.7994,-310.2899 1310.9738,-301.0446 1301.1633,-305.0452 1305.7994,-310.2899"/>
<text text-anchor="middle" x="1324.6797" y="-324.6" font-family="Times,serif" font-size="14.00" fill="#000000">r1, b, r2 (1)</text>
</g>
<!-- 19 -->
<g id="node26" class="node">
<title>19</title>
<ellipse fill="none" stroke="#000000" cx="665.6085" cy="-18" rx="35.3587" ry="18"/>
<text text-anchor="middle" x="665.6085" y="-13.8" font-family="Times,serif" font-size="14.00" fill="#000000">1, h, b</text>
</g>
<!-- 21&#45;&gt;19 -->
<g id="edge25" class="edge">
<title>21-&gt;19</title>
<path fill="none" stroke="#0000ff" d="M753.456,-88.6681C750.1539,-77.5784 744.5657,-63.7062 735.6085,-54 727.0646,-44.7417 715.5968,-37.483 704.4188,-31.9844"/>
<polygon fill="#0000ff" stroke="#0000ff" points="705.7195,-28.731 695.168,-27.7742 702.8198,-35.1022 705.7195,-28.731"/>
<text text-anchor="middle" x="783.3403" y="-58.2" font-family="Times,serif" font-size="14.00" fill="#000000">-r1, b, -r2 (0)</text>
</g>
<!-- 6 -->
<g id="node16" class="node">
<title>6</title>
<ellipse fill="none" stroke="#000000" cx="1503.6085" cy="-373.2" rx="38.2876" ry="18"/>
<text text-anchor="middle" x="1503.6085" y="-369" font-family="Times,serif" font-size="14.00" fill="#000000">0, h, r1</text>
</g>
<!-- 23 -->
<g id="node17" class="node">
<title>23</title>
<ellipse fill="none" stroke="#000000" cx="1560.6085" cy="-284.4" rx="48.1013" ry="18"/>
<text text-anchor="middle" x="1560.6085" y="-280.2" font-family="Times,serif" font-size="14.00" fill="#000000">1, h, r1, b</text>
</g>
<!-- 6&#45;&gt;23 -->
<g id="edge15" class="edge">
<title>6-&gt;23</title>
<path fill="none" stroke="#0000ff" d="M1499.516,-354.9988C1498.0811,-344.283 1498.0419,-330.8303 1503.8055,-320.4 1507.4935,-313.7257 1512.9971,-308.1138 1519.1496,-303.4566"/>
<polygon fill="#0000ff" stroke="#0000ff" points="1521.4402,-306.1368 1527.8322,-297.6875 1517.5662,-300.3065 1521.4402,-306.1368"/>
<text text-anchor="middle" x="1539.01" y="-324.6" font-family="Times,serif" font-size="14.00" fill="#000000">r1, b, -r2 (0)</text>
</g>
<!-- 9 -->
<g id="node18" class="node">
<title>9</title>
<ellipse fill="none" stroke="#000000" cx="1176.6085" cy="-373.2" rx="28.9754" ry="18"/>
<text text-anchor="middle" x="1176.6085" y="-369" font-family="Times,serif" font-size="14.00" fill="#000000">1, r2</text>
</g>
<!-- 9&#45;&gt;24 -->
<g id="edge17" class="edge">
<title>9-&gt;24</title>
<path fill="none" stroke="#0000ff" d="M1170.1068,-355.2053C1166.1063,-344.8071 1160.6063,-331.6071 1154.6085,-320.4 1152.8008,-317.0224 1150.7609,-313.5618 1148.653,-310.1853"/>
<polygon fill="#0000ff" stroke="#0000ff" points="1151.4215,-308.0231 1143.0273,-301.5588 1145.5581,-311.8469 1151.4215,-308.0231"/>
<text text-anchor="middle" x="1197.01" y="-324.6" font-family="Times,serif" font-size="14.00" fill="#000000">-r1, b, r2 (1)</text>
</g>
<!-- 29 -->
<g id="node19" class="node">
<title>29</title>
<ellipse fill="none" stroke="#000000" cx="217.6085" cy="-284.4" rx="51.0319" ry="18"/>
<text text-anchor="middle" x="217.6085" y="-280.2" font-family="Times,serif" font-size="14.00" fill="#000000">1, r1, r2, b</text>
</g>
<!-- 29&#45;&gt;26 -->
<g id="edge18" class="edge">
<title>29-&gt;26</title>
<path fill="none" stroke="#0000ff" d="M219.2343,-266.3001C220.1896,-256.0995 221.4694,-243.1287 222.8055,-231.6 223.0976,-229.079 223.4166,-226.4607 223.7468,-223.8382"/>
<polygon fill="#0000ff" stroke="#0000ff" points="227.2204,-224.2675 225.0427,-213.8989 220.2792,-223.3624 227.2204,-224.2675"/>
<text text-anchor="middle" x="258.01" y="-235.8" font-family="Times,serif" font-size="14.00" fill="#000000">-r1, b, r2 (1)</text>
</g>
<!-- 11 -->
<g id="node20" class="node">
<title>11</title>
<ellipse fill="none" stroke="#000000" cx="325.6085" cy="-284.4" rx="38.2876" ry="18"/>
<text text-anchor="middle" x="325.6085" y="-280.2" font-family="Times,serif" font-size="14.00" fill="#000000">1, h, r2</text>
</g>
<!-- 11&#45;&gt;26 -->
<g id="edge19" class="edge">
<title>11-&gt;26</title>
<path fill="none" stroke="#0000ff" d="M317.0485,-266.6803C311.0599,-255.6146 302.2429,-241.6176 291.6085,-231.6 284.6575,-225.0522 276.2949,-219.2541 267.9418,-214.3274"/>
<polygon fill="#0000ff" stroke="#0000ff" points="269.3898,-211.128 258.9488,-209.3293 265.9893,-217.2465 269.3898,-211.128"/>
<text text-anchor="middle" x="340.01" y="-235.8" font-family="Times,serif" font-size="14.00" fill="#000000">-r1, b, r2 (1)</text>
</g>
<!-- 13 -->
<g id="node21" class="node">
<title>13</title>
<ellipse fill="none" stroke="#000000" cx="325.6085" cy="-373.2" rx="41.7172" ry="18"/>
<text text-anchor="middle" x="325.6085" y="-369" font-family="Times,serif" font-size="14.00" fill="#000000">1, r1, r2</text>
</g>
<!-- 11&#45;&gt;13 -->
<g id="edge27" class="edge">
<title>11-&gt;13</title>
<path fill="none" stroke="#0000ff" d="M325.6085,-302.472C325.6085,-314.6243 325.6085,-330.8958 325.6085,-344.768"/>
<polygon fill="#0000ff" stroke="#0000ff" points="322.1086,-344.8005 325.6085,-354.8006 329.1086,-344.8006 322.1086,-344.8005"/>
<text text-anchor="middle" x="360.01" y="-324.6" font-family="Times,serif" font-size="14.00" fill="#000000">r1, -b, r2 (0)</text>
</g>
<!-- 13&#45;&gt;28 -->
<g id="edge20" class="edge">
<title>13-&gt;28</title>
<path fill="none" stroke="#0000ff" d="M361.0364,-363.6481C374.2609,-358.1744 387.9207,-349.7986 395.6085,-337.2 399.4978,-330.8263 396.0062,-327.8561 395.6085,-320.4 391.3802,-241.1289 418.576,-210.1833 376.6085,-142.8 372.6522,-136.4478 367.1166,-131.0231 361.0374,-126.4587"/>
<polygon fill="#0000ff" stroke="#0000ff" points="362.7674,-123.4053 352.5078,-120.7614 358.8794,-129.2263 362.7674,-123.4053"/>
<text text-anchor="middle" x="432.6797" y="-235.8" font-family="Times,serif" font-size="14.00" fill="#000000">r1, b, r2 (1)</text>
</g>
<!-- 13&#45;&gt;11 -->
<g id="edge23" class="edge">
<title>13-&gt;11</title>
<path fill="none" stroke="#0000ff" d="M289.4236,-364.1504C265.4866,-357.3483 237.2482,-347.4704 230.1449,-337.2 225.8976,-331.059 225.8976,-326.541 230.1449,-320.4 230.257,-320.2378 259.8236,-309.1016 286.0188,-299.2589"/>
<polygon fill="#0000ff" stroke="#0000ff" points="287.3257,-302.5068 295.4563,-295.7138 284.8642,-295.9538 287.3257,-302.5068"/>
<text text-anchor="middle" x="267.3403" y="-324.6" font-family="Times,serif" font-size="14.00" fill="#000000">-r1, -b, r2 (0)</text>
</g>
<!-- 27 -->
<g id="node22" class="node">
<title>27</title>
<ellipse fill="none" stroke="#000000" cx="485.6085" cy="-195.6" rx="48.1013" ry="18"/>
<text text-anchor="middle" x="485.6085" y="-191.4" font-family="Times,serif" font-size="14.00" fill="#000000">1, h, r2, b</text>
</g>
<!-- 27&#45;&gt;28 -->
<g id="edge21" class="edge">
<title>27-&gt;28</title>
<path fill="none" stroke="#0000ff" d="M469.0301,-178.4595C457.2399,-167.0698 440.5467,-152.4833 423.6085,-142.8 407.4545,-133.5651 388.5404,-126.1466 371.304,-120.499"/>
<polygon fill="#0000ff" stroke="#0000ff" points="371.9723,-117.0402 361.3829,-117.378 369.8718,-123.7176 371.9723,-117.0402"/>
<text text-anchor="middle" x="479.6797" y="-147" font-family="Times,serif" font-size="14.00" fill="#000000">r1, b, r2 (1)</text>
</g>
<!-- 15 -->
<g id="node23" class="node">
<title>15</title>
<ellipse fill="none" stroke="#000000" cx="1395.6085" cy="-373.2" rx="51.0319" ry="18"/>
<text text-anchor="middle" x="1395.6085" y="-369" font-family="Times,serif" font-size="14.00" fill="#000000">1, h, r1, r2</text>
</g>
<!-- 15&#45;&gt;30 -->
<g id="edge22" class="edge">
<title>15-&gt;30</title>
<path fill="none" stroke="#0000ff" d="M1383.7544,-355.656C1375.1001,-342.8476 1363.2186,-325.2629 1353.4243,-310.7675"/>
<polygon fill="#0000ff" stroke="#0000ff" points="1356.142,-308.5379 1347.6433,-302.2115 1350.3418,-312.4569 1356.142,-308.5379"/>
<text text-anchor="middle" x="1403.6797" y="-324.6" font-family="Times,serif" font-size="14.00" fill="#000000">r1, b, r2 (1)</text>
</g>
<!-- 1 -->
<g id="node24" class="node">
<title>1</title>
<ellipse fill="none" stroke="#000000" cx="1690.6085" cy="-373.2" rx="27" ry="18"/>
<text text-anchor="middle" x="1690.6085" y="-369" font-family="Times,serif" font-size="14.00" fill="#000000">1</text>
</g>
<!-- 17 -->
<g id="node25" class="node">
<title>17</title>
<ellipse fill="none" stroke="#000000" cx="1690.6085" cy="-284.4" rx="27" ry="18"/>
<text text-anchor="middle" x="1690.6085" y="-280.2" font-family="Times,serif" font-size="14.00" fill="#000000">1, b</text>
</g>
<!-- 1&#45;&gt;17 -->
<g id="edge24" class="edge">
<title>1-&gt;17</title>
<path fill="none" stroke="#0000ff" d="M1690.6085,-354.8006C1690.6085,-342.6949 1690.6085,-326.6076 1690.6085,-312.8674"/>
<polygon fill="#0000ff" stroke="#0000ff" points="1694.1086,-312.472 1690.6085,-302.472 1687.1086,-312.4721 1694.1086,-312.472"/>
<text text-anchor="middle" x="1727.3403" y="-324.6" font-family="Times,serif" font-size="14.00" fill="#000000">-r1, b, -r2 (0)</text>
</g>
<!-- 19&#45;&gt;21 -->
<g id="edge28" class="edge">
<title>19-&gt;21</title>
<path fill="none" stroke="#0000ff" d="M659.4293,-36.1429C656.8846,-47.1002 655.9243,-60.8264 662.8055,-70.8 669.0913,-79.9108 692.0742,-88.7568 713.8351,-95.4001"/>
<polygon fill="#0000ff" stroke="#0000ff" points="713.102,-98.8325 723.683,-98.2904 715.0734,-92.1158 713.102,-98.8325"/>
<text text-anchor="middle" x="698.01" y="-58.2" font-family="Times,serif" font-size="14.00" fill="#000000">r1, b, -r2 (0)</text>
</g>
<!-- 3 -->
<g id="node27" class="node">
<title>3</title>
<ellipse fill="none" stroke="#000000" cx="605.6085" cy="-284.4" rx="27" ry="18"/>
<text text-anchor="middle" x="605.6085" y="-280.2" font-family="Times,serif" font-size="14.00" fill="#000000">1, h</text>
</g>
<!-- 3&#45;&gt;19 -->
<g id="edge26" class="edge">
<title>3-&gt;19</title>
<path fill="none" stroke="#0000ff" d="M600.1275,-266.3115C597.7253,-256.1145 595.8154,-243.1434 597.6085,-231.6 608.3469,-162.4694 637.5347,-85.1014 653.9662,-45.1529"/>
<polygon fill="#0000ff" stroke="#0000ff" points="657.2351,-46.4075 657.8498,-35.8305 650.7733,-43.7155 657.2351,-46.4075"/>
<text text-anchor="middle" x="655.3403" y="-147" font-family="Times,serif" font-size="14.00" fill="#000000">-r1, b, -r2 (0)</text>
</g>
<!-- 5 -->
<g id="node29" class="node">
<title>5</title>
<ellipse fill="none" stroke="#000000" cx="706.6085" cy="-195.6" rx="28.9754" ry="18"/>
<text text-anchor="middle" x="706.6085" y="-191.4" font-family="Times,serif" font-size="14.00" fill="#000000">1, r1</text>
</g>
<!-- 3&#45;&gt;5 -->
<g id="edge31" class="edge">
<title>3-&gt;5</title>
<path fill="none" stroke="#00ff00" d="M631.2695,-278.032C648.3175,-272.6402 670.144,-263.3467 684.6085,-248.4 691.332,-241.4523 696.1235,-232.1524 699.48,-223.2943"/>
<polygon fill="#00ff00" stroke="#00ff00" points="702.8593,-224.2233 702.6863,-213.6299 696.2154,-222.019 702.8593,-224.2233"/>
<text text-anchor="middle" x="733.3403" y="-235.8" font-family="Times,serif" font-size="14.00" fill="#000000">r1, -b, -r2 (0)</text>
</g>
<!-- 7 -->
<g id="node28" class="node">
<title>7</title>
<ellipse fill="none" stroke="#000000" cx="1598.6085" cy="-373.2" rx="38.2876" ry="18"/>
<text text-anchor="middle" x="1598.6085" y="-369" font-family="Times,serif" font-size="14.00" fill="#000000">1, h, r1</text>
</g>
<!-- 7&#45;&gt;23 -->
<g id="edge29" class="edge">
<title>7-&gt;23</title>
<path fill="none" stroke="#0000ff" d="M1591.1782,-355.0724C1586.9627,-344.8631 1581.556,-331.8928 1576.6085,-320.4 1575.3771,-317.5397 1574.0777,-314.558 1572.7733,-311.5887"/>
<polygon fill="#0000ff" stroke="#0000ff" points="1575.9143,-310.0374 1568.667,-302.309 1569.513,-312.87 1575.9143,-310.0374"/>
<text text-anchor="middle" x="1617.01" y="-324.6" font-family="Times,serif" font-size="14.00" fill="#000000">r1, b, -r2 (0)</text>
</g>
<!-- 5&#45;&gt;21 -->
<g id="edge32" class="edge">
<title>5-&gt;21</title>
<path fill="none" stroke="#00ff00" d="M708.5598,-177.5326C710.3172,-166.8642 713.6237,-153.4143 719.8055,-142.8 722.5991,-138.0032 726.2199,-133.4409 730.1122,-129.2756"/>
<polygon fill="#00ff00" stroke="#00ff00" points="732.5979,-131.7402 737.2915,-122.2417 727.699,-126.74 732.5979,-131.7402"/>
<text text-anchor="middle" x="755.01" y="-147" font-family="Times,serif" font-size="14.00" fill="#000000">r1, b, -r2 (0)</text>
</g>
<!-- 5&#45;&gt;3 -->
<g id="edge30" class="edge">
<title>5-&gt;3</title>
<path fill="none" stroke="#00ff00" d="M679.5458,-201.6751C652.9735,-208.2479 615.1915,-219.4321 606.4843,-231.6 601.4775,-238.5967 600.0238,-247.5589 600.191,-256.1054"/>
<polygon fill="#00ff00" stroke="#00ff00" points="596.7126,-256.5063 601.069,-266.1641 603.6861,-255.8976 596.7126,-256.5063"/>
<text text-anchor="middle" x="645.6706" y="-235.8" font-family="Times,serif" font-size="14.00" fill="#000000">-r1, -b, -r2 (0)</text>
</g>
</g>
</svg>